<?xml version="1.0" encoding="UTF-8" standalone="no"?>
<!-- Created with Inkscape (http://www.inkscape.org/) -->

<svg
   width="50mm"
   height="50mm"
   viewBox="0 0 50 50"
   version="1.1"
   id="svg5"
   inkscape:version="1.2 (dc2aeda, 2022-05-15)"
   sodipodi:docname="square.svg"
   xml:space="preserve"
   xmlns:inkscape="http://www.inkscape.org/namespaces/inkscape"
   xmlns:sodipodi="http://sodipodi.sourceforge.net/DTD/sodipodi-0.dtd"
   xmlns="http://www.w3.org/2000/svg"
   xmlns:svg="http://www.w3.org/2000/svg"><sodipodi:namedview
     id="namedview7"
     pagecolor="#ffffff"
     bordercolor="#000000"
     borderopacity="0.25"
     inkscape:showpageshadow="2"
     inkscape:pageopacity="0.0"
     inkscape:pagecheckerboard="0"
     inkscape:deskcolor="#d1d1d1"
     inkscape:document-units="mm"
     showgrid="false"
     inkscape:zoom="1.504323"
     inkscape:cx="280.85723"
     inkscape:cy="191.44824"
     inkscape:window-width="1920"
     inkscape:window-height="1015"
     inkscape:window-x="0"
     inkscape:window-y="0"
     inkscape:window-maximized="1"
     inkscape:current-layer="layer1" /><defs
     id="defs2"><inkscape:path-effect
       effect="powerstroke"
       id="path-effect1471"
       is_visible="true"
       lpeversion="1"
       offset_points="0.36515688,4.1681194"
       not_jump="true"
       sort_points="true"
       interpolator_type="CentripetalCatmullRom"
       interpolator_beta="0.75"
       start_linecap_type="round"
       linejoin_type="spiro"
       miter_limit="4"
       scale_width="1"
       end_linecap_type="round" /><inkscape:path-effect
       effect="simplify"
       id="path-effect1469"
       is_visible="true"
       lpeversion="1"
       steps="1"
       threshold="0.0047745358"
       smooth_angles="0"
       helper_size="0"
       simplify_individual_paths="false"
       simplify_just_coalesce="false"
       step="1" /><inkscape:path-effect
       effect="powerstroke"
       id="path-effect1464"
       is_visible="true"
       lpeversion="1"
       offset_points="0.23942575,4.1681194"
       not_jump="true"
       sort_points="true"
       interpolator_type="CentripetalCatmullRom"
       interpolator_beta="0.75"
       start_linecap_type="round"
       linejoin_type="spiro"
       miter_limit="4"
       scale_width="1"
       end_linecap_type="round" /><inkscape:path-effect
       effect="simplify"
       id="path-effect1462"
       is_visible="true"
       lpeversion="1"
       steps="1"
       threshold="0.0047745358"
       smooth_angles="0"
       helper_size="0"
       simplify_individual_paths="false"
       simplify_just_coalesce="false"
       step="1" /><inkscape:path-effect
       effect="powerstroke"
       id="path-effect1457"
       is_visible="true"
       lpeversion="1"
       offset_points="0.76674781,4.1681194"
       not_jump="true"
       sort_points="true"
       interpolator_type="CentripetalCatmullRom"
       interpolator_beta="0.75"
       start_linecap_type="round"
       linejoin_type="spiro"
       miter_limit="4"
       scale_width="1"
       end_linecap_type="round" /><inkscape:path-effect
       effect="simplify"
       id="path-effect1455"
       is_visible="true"
       lpeversion="1"
       steps="1"
       threshold="0.0047745358"
       smooth_angles="0"
       helper_size="0"
       simplify_individual_paths="false"
       simplify_just_coalesce="false"
       step="1" /><inkscape:path-effect
       effect="powerstroke"
       id="path-effect1091"
       is_visible="true"
       lpeversion="1"
       offset_points="0.43948448,2.8894041"
       not_jump="true"
       sort_points="true"
       interpolator_type="CentripetalCatmullRom"
       interpolator_beta="0.75"
       start_linecap_type="round"
       linejoin_type="spiro"
       miter_limit="4"
       scale_width="1"
       end_linecap_type="round" /><inkscape:path-effect
       effect="simplify"
       id="path-effect1089"
       is_visible="true"
       lpeversion="1"
       steps="1"
       threshold="0.0047745358"
       smooth_angles="0"
       helper_size="0"
       simplify_individual_paths="false"
       simplify_just_coalesce="false"
       step="1" /><inkscape:path-effect
       effect="powerstroke"
       id="path-effect1084"
       is_visible="true"
       lpeversion="1"
       offset_points="0.74784297,2.8894041"
       not_jump="true"
       sort_points="true"
       interpolator_type="CentripetalCatmullRom"
       interpolator_beta="0.75"
       start_linecap_type="round"
       linejoin_type="spiro"
       miter_limit="4"
       scale_width="1"
       end_linecap_type="round" /><inkscape:path-effect
       effect="simplify"
       id="path-effect1082"
       is_visible="true"
       lpeversion="1"
       steps="1"
       threshold="0.0047745358"
       smooth_angles="0"
       helper_size="0"
       simplify_individual_paths="false"
       simplify_just_coalesce="false"
       step="1" /></defs><g
     inkscape:label="Calque 1"
     inkscape:groupmode="layer"
     id="layer1"><g
       id="g313"><rect
         style="fill:none;stroke:#000000;stroke-width:0.0781813;stroke-linejoin:round"
         id="rect142"
         width="29.921818"
         height="29.921818"
         x="10.039091"
         y="10.039091"
         ry="2.4259787" /><path
         style="stroke:#000000;fill:none;stroke-width:0.0781813"
         d="M 11.029331,10.171383 l -0.436999,0.436999 c -0.561266,0.561266 -0.561266,1.683798 0.000000,1.122532 l 1.138582,-1.138582 c 0.561266,-0.561266 1.683798,-0.561266 1.122532,0.000000 l -2.261113,2.261113 c -0.561266,0.561266 -0.561266,1.683798 0.000000,1.122532 l 3.383645,-3.383645 c 0.561266,-0.561266 1.683798,-0.561266 1.122532,0.000000 l -4.506177,4.506177 c -0.561266,0.561266 -0.561266,1.683798 -0.000000,1.122532 l 5.628709,-5.628709 c 0.561266,-0.561266 1.683798,-0.561266 1.122532,0.000000 l -6.751241,6.751241 c -0.561266,0.561266 -0.561266,1.683798 0.000000,1.122532 l 7.873773,-7.873773 c 0.561266,-0.561266 1.683798,-0.561266 1.122532,0.000000 l -8.996305,8.996305 c -0.561266,0.561266 -0.561266,1.683798 0.000000,1.122532 l 10.118837,-10.118837 c 0.561266,-0.561266 1.683798,-0.561266 1.122532,0.000000 l -11.241369,11.241369 c -0.561266,0.561266 -0.561266,1.683798 0.000000,1.122532 l 12.363900,-12.363900 c 0.561266,-0.561266 1.683798,-0.561266 1.122532,0.000000 l -13.486432,13.486432 c -0.561266,0.561266 -0.561266,1.683798 0.000000,1.122532 l 14.608964,-14.608964 c 0.561266,-0.561266 1.683798,-0.561266 1.122532,0.000000 l -15.731496,15.731496 c -0.561266,0.561266 -0.561266,1.683798 0.000000,1.122532 l 16.854028,-16.854028 c 0.561266,-0.561266 1.683798,-0.561266 1.122532,0.000000 l -17.976560,17.976560 c -0.561266,0.561266 -0.561266,1.683798 0.000000,1.122532 l 19.099092,-19.099092 c 0.561266,-0.561266 1.683798,-0.561266 1.122532,0.000000 l -20.221624,20.221624 c -0.561266,0.561266 -0.561266,1.683798 0.000000,1.122532 l 21.344155,-21.344155 c 0.561266,-0.561266 1.683798,-0.561266 1.122532,0.000000 l -22.466687,22.466687 c -0.561266,0.561266 -0.561266,1.683798 0.000000,1.122532 l 23.589219,-23.589219 c 0.561266,-0.561266 1.683798,-0.561266 1.122532,0.000000 l -24.711751,24.711751 c -0.561266,0.561266 -0.561266,1.683798 0.000000,1.122532 l 25.834283,-25.834283 c 0.561266,-0.561266 1.683798,-0.561266 1.122532,0.000000 l -26.956815,26.956815 c -0.561266,0.561266 -0.561266,1.683798 0.000000,1.122532 l 28.079347,-28.079347 c 0.561266,-0.561266 1.297255,-0.174723 0.735989,0.386543 l -28.428793,28.428793 c -0.561266,0.561266 0.561266,0.561266 1.122532,0.000000 l 27.306261,-27.306261 c 0.561266,-0.561266 0.561266,0.561266 0.000000,1.122532 l -26.183729,26.183729 c -0.561266,0.561266 0.561266,0.561266 1.122532,0.000000 l 25.061197,-25.061197 c 0.561266,-0.561266 0.561266,0.561266 0.000000,1.122532 l -23.938665,23.938665 c -0.561266,0.561266 0.561266,0.561266 1.122532,-0.000000 l 22.816133,-22.816133 c 0.561266,-0.561266 0.561266,0.561266 0.000000,1.122532 l -21.693602,21.693602 c -0.561266,0.561266 0.561266,0.561266 1.122532,0.000000 l 20.571070,-20.571070 c 0.561266,-0.561266 0.561266,0.561266 0.000000,1.122532 l -19.448538,19.448538 c -0.561266,0.561266 0.561266,0.561266 1.122532,0.000000 l 18.326006,-18.326006 c 0.561266,-0.561266 0.561266,0.561266 0.000000,1.122532 l -17.203474,17.203474 c -0.561266,0.561266 0.561266,0.561266 1.122532,0.000000 l 16.080942,-16.080942 c 0.561266,-0.561266 0.561266,0.561266 0.000000,1.122532 l -14.958410,14.958410 c -0.561266,0.561266 0.561266,0.561266 1.122532,-0.000000 l 13.835878,-13.835878 c 0.561266,-0.561266 0.561266,0.561266 0.000000,1.122532 l -12.713347,12.713347 c -0.561266,0.561266 0.561266,0.561266 1.122532,-0.000000 l 11.590815,-11.590815 c 0.561266,-0.561266 0.561266,0.561266 0.000000,1.122532 l -10.468283,10.468283 c -0.561266,0.561266 0.561266,0.561266 1.122532,0.000000 l 9.345751,-9.345751 c 0.561266,-0.561266 0.561266,0.561266 0.000000,1.122532 l -8.223219,8.223219 c -0.561266,0.561266 0.561266,0.561266 1.122532,0.000000 l 7.100687,-7.100687 c 0.561266,-0.561266 0.561266,0.561266 0.000000,1.122532 l -5.978155,5.978155 c -0.561266,0.561266 0.561266,0.561266 1.122532,0.000000 l 4.855623,-4.855623 c 0.561266,-0.561266 0.561266,0.561266 0.000000,1.122532 l -3.733091,3.733091 c -0.561266,0.561266 0.561266,0.561266 1.122532,0.000000 l 2.610560,-2.610560 c 0.561266,-0.561266 0.561266,0.561266 0.000000,1.122532 l -1.488028,1.488028 c -0.561266,0.561266 0.561266,0.561266 1.122532,0.000000 l 0.786445,-0.786445"
         id="path311" /></g></g><plotdata
     application="axidraw"
     model="2"
     layer="-2"
     node="0"
     last_path="0"
     node_after_path="0"
     last_known_x="0"
     last_known_y="0"
     paused_x="0"
     paused_y="0"
     randseed="0"
     row="0"
     id="1658608901" /></svg>
