<?xml version="1.0" encoding="UTF-8" standalone="no"?>
<!-- Created with Inkscape (http://www.inkscape.org/) -->

<svg
   sodipodi:docname="face-stroke.svg"
   viewBox="0 0 1024 1024"
   height="1024"
   width="1024"
   id="svg869"
   version="1.1"
   inkscape:version="1.2 (dc2aeda, 2022-05-15)"
   xmlns:inkscape="http://www.inkscape.org/namespaces/inkscape"
   xmlns:sodipodi="http://sodipodi.sourceforge.net/DTD/sodipodi-0.dtd"
   xmlns:xlink="http://www.w3.org/1999/xlink"
   xmlns="http://www.w3.org/2000/svg"
   xmlns:svg="http://www.w3.org/2000/svg"
   xmlns:rdf="http://www.w3.org/1999/02/22-rdf-syntax-ns#"
   xmlns:cc="http://creativecommons.org/ns#"
   xmlns:dc="http://purl.org/dc/elements/1.1/">
  <metadata
     id="metadata875">
    <rdf:RDF>
      <cc:Work
         rdf:about="">
        <dc:format>image/svg+xml</dc:format>
        <dc:type
           rdf:resource="http://purl.org/dc/dcmitype/StillImage" />
      </cc:Work>
    </rdf:RDF>
  </metadata>
  <defs
     id="defs873">
    <inkscape:path-effect
       effect="rough_hatches"
       id="path-effect1654"
       is_visible="true"
       direction="618.2845,507.00565 , 202.85775,0"
       dist_rdm="99;1"
       growth="0"
       do_bend="false"
       bender="618.2845,512.00565 , 5,0"
       bottom_edge_variation="102.40113;1"
       top_edge_variation="102.40113;1"
       bottom_tgt_variation="0;1"
       top_tgt_variation="0;1"
       scale_bf="1"
       scale_bb="1"
       scale_tf="0.9"
       scale_tb="1"
       top_smth_variation="0;1"
       bottom_smth_variation="0;1"
       fat_output="true"
       stroke_width_top="1"
       stroke_width_bottom="1"
       front_thickness="1"
       back_thickness="0.25" />
  </defs>
  <sodipodi:namedview
     pagecolor="#ffffff"
     bordercolor="#666666"
     borderopacity="1"
     objecttolerance="10"
     gridtolerance="10"
     guidetolerance="10"
     inkscape:pageopacity="0"
     inkscape:pageshadow="2"
     inkscape:window-width="1920"
     inkscape:window-height="1016"
     id="namedview871"
     showgrid="false"
     inkscape:zoom="0.84472656"
     inkscape:cx="512.59191"
     inkscape:cy="513.18382"
     inkscape:window-x="0"
     inkscape:window-y="1107"
     inkscape:window-maximized="1"
     inkscape:current-layer="svg869"
     inkscape:showpageshadow="2"
     inkscape:pagecheckerboard="0"
     inkscape:deskcolor="#d1d1d1" />
  <g
     id="g897">
     <g
       id="g136">
      <path
         style="display:inline;fill:none;stroke:#000000;stroke-width:1"
         d="m 420.79673,75.558883 0.95409,-0.954086 c 0.74864,-0.748646 13.46333,-6.392265 12.71468,-5.643619 l -0.56148,0.561485 m -43.6911,36.620027 -0.53515,0.53515 c -0.71353,0.71353 9.34085,-2.26978 10.05438,-2.98331 l 7.74006,-7.740058 m 34.6055,0.749834 1.1716,-1.1716 c 1.56214,-1.562133 1.3328,5.738274 -0.22934,7.300404 l -2.76842,2.76843 c -3.53554,3.53554 -9.90727,16.97833 -6.37174,13.4428 l 7.85973,-7.85972 m -32.25502,18.11287 1.37821,-1.3782 m 42.55214,-28.410008 21.56329,-21.563286 m 33.51848,-26.447417 1.29511,-1.295111 c 1.72682,-1.726815 10.19486,3.947283 8.46804,5.674097 l -86.20615,86.206155 c -3.53554,3.53553 -5.59028,-1.48079 -2.05475,-5.01632 l 59.12356,-59.123558 c 3.53553,-3.535534 4.16577,-11.236844 0.63024,-7.70131 l -62.99828,62.998278 m -30.42372,30.42372 -4.19283,4.19283 c -3.53553,3.53553 3.68712,3.38395 7.22266,-0.15159 l 7.96593,-7.96593 m 95.77128,-95.771276 -10.08794,10.087938 m -76.95413,76.954128 -1.03328,1.03327 c -1.3777,1.37771 3.66943,3.40164 5.04714,2.02394 l 6.25789,-6.25789 M 573.61966,0.517695 572.74964,1.387717 c -1.16003,1.160029 4.754,2.317066 5.91403,1.157036 l 1.52868,-1.528679 c 0.6881,-0.688099 4.21566,2.85541 3.52756,3.54351 v 0 c -0.6881,0.688099 2.74843,11.393699 3.43653,10.7056 l 0.87555,-0.875542 m -44.6957,23.482497 4.97119,-4.971194 c 2.38906,-2.389063 9.79088,-2.719813 7.40182,-0.33075 v 0 c -2.38906,2.389063 4.51568,2.555385 6.90474,0.166322 l 2.17918,-2.179179 c 3.53554,-3.535534 6.04415,1.026924 2.50861,4.562458 l -1.41597,1.415972 c -3.53553,3.535534 -0.0715,7.142594 3.46401,3.60706 l 3.30808,-3.30808 c 3.53553,-3.535534 11.55642,-4.485351 8.02088,-0.949817 l -6.58376,6.583763 M 437.34595,143.86247 529.92416,51.284266 c 3.53553,-3.535534 10.22327,-3.152205 6.68774,0.383329 l -84.18307,84.183065 c -3.53553,3.53553 2.95869,4.11238 6.49423,0.57684 l 78.7038,-78.703802 c 3.53554,-3.535534 9.34378,-2.272712 5.80825,1.262822 l -81.62225,81.62225 c -1.02732,1.02731 4.82299,2.24807 5.85031,1.22076 v 0 c 1.02731,-1.02731 15.5751,-1.43297 14.54779,-0.40566 l -1.29098,1.29099 c -0.98094,0.98093 2.23264,4.83842 3.21357,3.85749 l 0.7357,-0.7357 m 58.36265,-93.717992 1.47138,-1.471379 c 1.40637,-1.40637 7.78372,-0.712646 6.37735,0.693723 l -1.05478,1.054777 m -7.62528,14.696343 15.98495,-15.984945 m -17.8984,17.898399 -64.54065,64.540644 c -3.53553,3.53554 1.36938,5.7017 4.90491,2.16616 l 92.03839,-92.038382 m -14.96413,22.035194 31.71954,-31.719543 c 3.53554,-3.535534 10.36247,-3.291398 6.82694,0.244136 l -93.69659,93.696585 c -3.53553,3.53553 -3.80578,10.87685 -0.27025,7.34131 l 5.44411,-5.44411 c 2.38754,-2.38753 1.42117,5.64991 -0.96637,8.03744 v 0 c -2.38753,2.38754 -16.1049,1.96277 -13.71737,-0.42476 l 1.9424,-1.9424 M 537.8587,85.776132 552.50356,71.131268 M 532.60361,91.031227 492.06297,131.57186 M 559.14852,78.628446 602.24765,35.52932 c 3.53553,-3.535534 7.69281,-0.621749 4.15728,2.913785 l -32.57359,32.573591 m -22.34735,15.276284 -35.94388,35.94388 c -3.53554,3.53553 -2.12345,9.19451 1.41209,5.65898 l 4.21205,-4.21205 c 1.11894,-1.11894 7.48488,6.65725 6.36594,7.77619 v 0 c -1.11894,1.11894 1.42617,-8.49724 2.54511,-9.61617 l 62.63546,-62.635465 c 3.53553,-3.535534 4.64353,2.427533 1.108,5.963067 l -47.70734,47.707338 c -3.53553,3.53553 -5.151,12.22207 -1.61547,8.68654 l 2.36926,-2.36926 c 1.04378,-1.04378 -2.0861,9.15717 -3.12988,10.20095 v 0 c -1.04378,1.04378 10.50121,-3.43015 11.54499,-4.47393 l 16.9514,-16.9514 c 3.53554,-3.53553 14.5364,-7.46532 11.00086,-3.92979 l -13.24601,13.24602 c -3.53554,3.53553 0.86584,6.20522 4.40137,2.66969 l 12.37079,-12.37079 c 1.54567,-1.54566 -4.50065,11.57172 -6.04632,13.11739 l -1.15925,1.15925 m -55.38317,-1.18537 41.55118,-41.551187 m 34.61339,-27.542318 12.05319,-12.053193 c 3.53553,-3.535534 11.14365,-4.072577 7.60811,-0.537043 l -9.70625,9.706256 m -50.92874,57.999795 36.4552,-36.455196 m -39.41281,39.412806 -1.07567,1.07568 m -7.95187,15.02294 78.49008,-78.490087 c 3.37693,-3.376924 12.75925,-5.68818 9.38233,-2.311257 l -1.83455,1.834544 c -0.93086,0.930865 7.01152,0.05955 7.94238,-0.87131 v 0 c 0.93087,-0.930865 4.00222,3.068852 3.07135,3.999718 l -44.60515,44.605148 c -3.53553,3.535534 -9.50196,2.430899 -5.96643,-1.104635 l 35.39155,-35.391547 c 3.53553,-3.535534 -6.11315,-0.957915 -9.64869,2.577619 l -38.8972,38.897206 c -1.36049,1.360481 11.80852,2.333611 13.169,0.973131 v 0 c 1.36048,-1.360481 15.66405,-1.521915 14.30357,-0.16143 l -6.64656,6.64655 m -37.92588,16.71268 0.52804,-0.52804 c 0.70406,-0.70405 0.37078,6.70029 -0.33327,7.40434 l -1.27783,1.27783 c -1.75167,1.75167 -4.76108,-2.30998 -3.00941,-4.06166 l 1.31375,-1.31375 m 110.6479,-103.576832 -7.94801,7.948011 m -14.66389,14.663894 1.57095,-1.570952 c 2.0946,-2.094602 7.34668,-0.275613 5.25208,1.818989 l -72.18903,72.18903 m -7.33516,7.33516 -4.26167,4.26167 M 707.87354,0.614109 704.90071,3.586932 c -3.33083,3.330835 -0.65877,7.729837 2.67207,4.399002 l 0.0662,-0.0662 c 3.24257,-3.242569 4.64335,2.427715 1.40078,5.670283 v 0 c -3.24257,3.242569 -2.91148,9.982554 0.33109,6.739985 l 2.67516,-2.675165 c 1.29769,-1.297685 2.94771,4.123359 1.65003,5.421044 v 0 c -1.29769,1.297685 1.08191,13.060217 2.3796,11.762532 l 1.83313,-1.83313 c 1.27061,-1.270608 6.69187,0.3792 5.42126,1.649808 v 0 c -1.27061,1.270608 5.54055,1.530516 6.81116,0.259909 l 0.10656,-0.106564 c 1.41269,-1.412693 5.0422,2.028869 3.62951,3.441563 l -0.65205,0.652048 c -0.91897,0.918969 10.27311,-3.20204 11.19207,-4.121008 v 0 c 0.91897,-0.918969 -2.41193,9.482999 -3.3309,10.401968 l -4.85946,4.859463 c -3.53553,3.535534 -9.67002,2.598958 -6.13449,-0.936576 l 1.0172,-1.017204 c 3.53554,-3.535534 -0.72334,-6.347725 -4.25887,-2.812191 l -5.83321,5.833203 c -3.53553,3.535534 -11.5176,4.446541 -7.98207,0.911007 l 8.25061,-8.250613 c 3.53554,-3.535534 -3.56368,-3.507387 -7.09921,0.02815 l -43.61062,43.610615 c -3.53553,3.535534 -8.83156,1.760496 -5.29603,-1.775038 L 694.1941,56.719949 c 3.53554,-3.535534 -2.72117,-4.349892 -6.25671,-0.814358 l -23.51878,23.518784 m -2.11063,-33.244706 -1.02223,1.022228 c -1.36297,1.36297 2.18232,4.888752 3.54529,3.525782 l 4.37484,-4.374847 c 3.53554,-3.535534 13.10416,-6.033086 9.56862,-2.497552 l -44.99724,44.997238 c -3.53553,3.535534 -5.74597,12.817042 -2.21044,9.281506 l 62.40062,-62.400616 c 3.53553,-3.535534 2.80472,-9.875784 -0.73082,-6.34025 l -6.26454,6.264544 c -3.53554,3.535534 3.98884,10.153296 7.52437,6.617762 l 13.19958,-13.199578 c 3.53553,-3.535534 3.29658,3.774492 -0.23896,7.310026 l -9.87248,9.87248 c -3.53553,3.535534 -0.15388,7.224954 3.38165,3.68942 l 4.66087,-4.660871 c 3.53554,-3.535534 3.64728,10.494853 0.11175,14.030387 l -27.55242,27.552423 c -3.53554,3.535534 5.42245,1.648619 8.95798,-1.886915 l 24.97594,-24.975939 c 3.53553,-3.535534 12.52762,-5.456551 8.99208,-1.921017 l -25.16432,25.164324 c -3.53553,3.535534 6.34428,0.726785 9.87982,-2.808749 l 22.1758,-22.175798 c 3.53553,-3.535534 2.16727,4.90379 -1.36826,8.439324 L 704.77724,88.56322 c -3.53553,3.535534 4.67082,2.400245 8.20636,-1.135288 l 20.95717,-20.957176 c 3.53554,-3.535534 10.19911,-3.128044 6.66358,0.40749 l -21.9151,21.9151 c -3.53553,3.535534 -0.61539,7.686462 2.92014,4.150928 l 37.8897,-37.889699 c 3.53553,-3.535534 9.56123,-2.49016 6.02569,1.045373 l -41.67729,41.677295 c -3.53554,3.535537 3.73691,3.334147 7.27245,-0.201382 L 771.8644,56.831399 c 3.53553,-3.535534 9.65715,-2.586082 6.12161,0.949452 l -14.30648,14.306481 m -133.33538,6.056162 20.62426,-20.624259 c 3.53553,-3.535534 11.38524,-4.314167 7.8497,-0.778633 l -39.32637,39.326371 c -3.53553,3.535534 -3.15008,-3.920985 0.38545,-7.456519 l 7.7608,-7.760802 m 61.42697,-54.355897 3.65626,-3.656257 M 332.14227,397.55858 333.93315,395.7677 M 685.76236,51.009553 649.3937,87.378216 c -2.51558,2.515583 -1.02196,8.093029 1.49362,5.577446 v 0 c 2.51559,-2.515583 -8.0021,0.931039 -10.51769,3.446622 l -1.85736,1.857368 c -2.73117,2.731168 1.37032,5.700738 4.10149,2.969578 l 2.04837,-2.048378 m -18.94531,11.874248 -3.34719,3.34718 m 123.15903,-66.590481 0.62566,-0.625664 c 0.83422,-0.834219 3.5233,3.547775 2.68908,4.381994 l -4.04566,4.045654 c -3.53553,3.535534 1.22418,5.846892 4.75971,2.311358 l 5.28239,-5.282384 c 1.51963,-1.519633 3.43843,-10.509498 1.9188,-8.989864 v 0 c -1.51964,1.519633 5.33136,1.739707 6.85099,0.220074 l 0.74586,-0.745863 c 0.69145,-0.691452 10.75085,3.391289 10.0594,4.08274 l -0.51859,0.518589 m -33.71928,5.435005 -6.23918,6.239184 m -358.34057,358.340568 2.55431,-2.55432 c 3.40575,-3.40575 8.4623,-1.39123 5.05655,2.01452 l -32.94834,32.94835 c -3.53554,3.53553 -5.22493,12.296 -1.6894,8.76047 L 386.1258,421.3568 m -33.83968,19.69754 3.97902,-3.97902 m 37.20782,-23.06568 2.11645,-2.11646 c 2.82194,-2.82194 10.06661,-2.99554 7.24467,-0.1736 l -54.43191,54.43191 c -3.53553,3.53553 -1.4069,8.47797 2.12864,4.94243 l 2.92705,-2.92705 m 36.76835,-50.91049 -1.66058,1.66059 m -56.51975,63.59082 -1.5103,1.51029 m 25.97117,-18.9001 52.90541,-52.90541 c 3.53554,-3.53554 10.58245,-3.51139 7.04692,0.0241 l -57.64572,57.64571 c -3.53553,3.53554 -5.26046,12.33154 -1.72493,8.796 l 66.52094,-66.52093 c 3.53553,-3.53554 9.55157,-2.48051 6.01604,1.05503 l -73.56215,73.56214 c -3.53553,3.53553 -3.63146,10.70253 -0.0959,7.16699 l 75.8244,-75.8244 c 3.53554,-3.53554 10.51753,-3.44646 6.982,0.0891 l -82.6967,82.6967 c -3.53553,3.53553 -3.38326,10.45433 0.15227,6.9188 l 5.91767,-5.91768 c 3.12791,-3.12791 -0.45445,7.52553 -3.58236,10.65344 l -2.34594,2.34593 M 761.75309,74.013777 736.9978,98.769066 c -1.66498,1.664984 0.4885,6.582564 2.15348,4.917584 l 1.24874,-1.24874 m 44.75607,-44.756063 -1.50122,1.501213 c -2.00161,2.001617 3.23335,3.837721 5.23497,1.836103 l 0.82543,-0.825437 c 1.73612,-1.736115 6.02088,1.050191 4.28477,2.786306 l -0.25861,0.258604 c -1.39131,1.39131 6.73321,7.40893 8.12452,6.01762 v 0 c 1.39131,-1.39131 4.9882,2.082863 3.59689,3.474173 l -19.53905,19.539054 m -43.59211,8.236777 35.11459,-35.114591 c 1.82579,-1.825794 6.74213,0.32893 4.91634,2.154724 v 0 c -1.82579,1.825794 4.17084,2.900225 5.99663,1.074432 l 0.15782,-0.157812 c 2.03621,-2.036209 5.65995,1.411116 3.62374,3.447325 l -39.16155,39.161552 c -3.53554,3.53553 -6.83118,-0.23989 -3.29565,-3.77542 l 30.95196,-30.95196 c 3.53553,-3.535534 -3.52816,-3.542904 -7.0637,-0.0074 l -30.03179,30.03179 m 54.88681,-47.815744 1.19969,-1.199689 c 0.94106,-0.941062 5.57376,1.497311 4.6327,2.438373 v 0 c -0.94106,0.941062 3.85475,3.216318 4.79581,2.275256 l 0.1038,-0.103797 c 1.07945,-1.079458 6.30834,0.76272 5.22889,1.842178 l -0.27143,0.271429 c -1.44137,1.441362 3.21453,3.856531 4.6559,2.415168 l 0.24089,-0.240897 c 1.76256,-1.762558 6.68083,0.390238 4.91827,2.152796 l -0.0611,0.06105 c -1.84395,1.843958 -2.52157,9.592638 -0.67761,7.74868 l 4.12785,-4.127846 c 3.53553,-3.535534 8.02437,-0.953303 4.48883,2.582231 l -1.2924,1.292403 c -3.53553,3.535534 -1.77482,8.845888 1.76072,5.310354 l 3.82344,-3.823444 c 3.53553,-3.535534 7.61781,-0.546746 4.08228,2.988788 l -3.09404,3.094041 c -3.53554,3.535534 0.52963,6.541433 4.06517,3.0059 l 2.89389,-2.893895 c 3.53554,-3.535534 7.31202,-0.240951 3.77649,3.294582 l -2.43889,2.438883 c -3.53553,3.535534 -0.3809,7.451971 3.15463,3.916437 l 3.4798,-3.479797 c 3.53554,-3.535534 7.26238,-0.191309 3.72684,3.344225 l -2.61377,2.613777 c -3.53554,3.535534 0.46912,6.601938 4.00466,3.066408 l 2.52547,-2.52547 c 3.13994,-3.139941 6.703,0.368061 3.56306,3.508002 l -0.46434,0.464348 c -2.52082,2.52081 1.96088,5.11018 4.48169,2.58937 v 0 c 2.52082,-2.52082 6.09027,0.9808 3.56946,3.50161 l -5.96687,5.96688 c -2.98749,2.98749 -7.0005,-0.0706 -4.01301,-3.05807 l 1.41227,-1.41227 c 1.10446,-1.10446 -3.06982,-4.00125 -4.17428,-2.89678 l -0.0269,0.0269 c -1.06853,1.06854 -7.71129,0.64023 -6.64275,-0.42831 l 0.17114,-0.17114 c 0.84035,-0.84035 -3.79241,-3.27866 -4.63276,-2.43831 v 0 c -0.84034,0.84034 -5.13394,-1.93712 -4.2936,-2.777468 l 0.14884,-0.148839 c 1.0388,-1.038796 -4.24992,-2.821146 -5.28872,-1.782349 l -48.21838,48.218386 c -3.53554,3.53553 -8.40679,1.33571 -4.87125,-2.19982 l 47.04972,-47.049718 c 3.53553,-3.535534 -1.7228,-5.348275 -5.25833,-1.812741 L 781.1944,139.42528 c -3.53553,3.53553 -7.36591,0.29484 -3.83037,-3.24069 l 43.07692,-43.07693 c 3.53554,-3.535534 1.18573,-8.256796 -2.3498,-4.721262 l -45.94772,45.947722 c -1.38228,1.38227 -6.14147,-0.9296 -4.75919,-2.31188 l 1.03671,-1.03671 m -401.63614,366.2808 76.27261,-76.27261 c 3.53553,-3.53553 7.13156,-0.0605 3.59603,3.47503 l -73.34067,73.34067 c -3.53553,3.53554 0.1798,6.89128 3.71533,3.35574 l 74.00414,-74.00414 c 3.53554,-3.53553 8.86626,-1.79519 5.33072,1.74035 l -67.26983,67.26983 c -3.53554,3.53554 2.79824,4.27283 6.33377,0.73729 l 67.81694,-67.81693 c 0.61621,-0.61621 6.25078,0.82029 5.63457,1.4365 l -0.46216,0.46216 M 797.30558,73.816623 757.08272,114.03948 c -3.53553,3.53554 5.62138,1.44969 9.15692,-2.08584 l 17.51685,-17.516854 m 24.79367,-17.722602 -41.70074,41.700736 c -3.53553,3.53553 -0.77812,7.84919 2.75741,4.31366 l 38.40428,-38.404281 c 3.53553,-3.535534 8.93887,-1.867803 5.40334,1.667731 l -40.36062,40.36062 m -393.88,379.73786 1.16309,-1.16308 c 1.55077,-1.55078 5.54535,1.52571 3.99457,3.07649 l -3.16165,3.16165 c -3.53553,3.53553 0.99428,6.07678 4.52981,2.54125 l 3.35939,-3.35938 c 3.53553,-3.53554 10.12527,-3.05421 6.58974,0.48132 l -4.73037,4.73037 c -3.53553,3.53554 2.04321,5.02786 5.57875,1.49232 l 7.08694,-7.08694 c 3.53553,-3.53553 12.46596,-5.39489 8.93043,-1.85936 l -8.23827,8.23827 c -3.53553,3.53553 3.66791,3.40315 7.20345,-0.13238 l 12.56896,-12.56897 M 818.06471,74.270696 819.98796,72.347452 M 399.37989,500.02658 456.65228,442.75419 c 3.53554,-3.53553 3.96516,3.10592 0.42962,6.64145 l -48.06167,48.06168 c -3.53554,3.53553 4.1991,2.87197 7.73463,-0.66357 l 41.90893,-41.90892 c 3.53553,-3.53554 5.03226,2.0388 1.49673,5.57434 l -33.56202,33.56201 c -3.53553,3.53553 4.09099,2.98008 7.62653,-0.55546 l 27.22843,-27.22843 c 3.53554,-3.53554 4.47029,2.60078 0.93476,6.13631 l -48.33488,48.33487 m 90.39693,-104.53906 -1.08501,1.08501 c -1.44667,1.44667 0.0911,6.97999 1.53775,5.53331 l 6.96192,-6.96191 c 3.53553,-3.53554 14.02571,0.11643 10.49017,3.65196 l -11.53334,11.53335 c -3.53554,3.53553 -1.20717,8.27823 2.32836,4.7427 l 32.61308,-32.61307 c 3.53553,-3.53554 9.2777,-2.20664 5.74217,1.32889 l -35.91138,35.91138 c -3.53554,3.53554 -0.72735,7.79842 2.80818,4.26289 l 38.10873,-38.10873 c 3.53553,-3.53554 9.20458,-2.13351 5.66904,1.40202 l -44.24875,44.24875 c -3.53553,3.53553 0.38138,6.68969 3.91692,3.15415 l 47.28648,-47.28648 c 3.53554,-3.53553 9.06331,-1.99224 5.52778,1.54329 l -53.70973,53.70973 c -3.53554,3.53554 -2.85029,9.92135 0.68525,6.38582 l 58.02613,-58.02613 c 3.53554,-3.53554 8.32523,-1.25417 4.7897,2.28137 l -61.49065,61.49065 c -3.53553,3.53553 -2.49283,9.56389 1.0427,6.02836 l 65.79487,-65.79486 c 3.53553,-3.53554 8.35544,-1.28438 4.81991,2.25115 l -68.9464,68.9464 c -3.53554,3.53554 -1.11094,8.18201 2.42459,4.64648 l 74.36929,-74.36929 c 1.33389,-1.33389 1.01594,-8.087 -0.31795,-6.75312 v 0 c -1.33389,1.33389 2.27807,4.793 3.61196,3.45911 l 0.92752,-0.92752 c 2.57057,-2.57057 7.67439,-0.60332 5.10381,1.96726 l -80.37418,80.37418 c -3.53554,3.53553 -0.77373,7.8448 2.7618,4.30926 l 87.46948,-87.46947 c 3.53553,-3.53554 7.94032,-0.86926 4.40479,2.66627 l -88.57518,88.57519 c -3.53554,3.53553 0.0141,7.05698 3.54962,3.52144 l 89.17809,-89.17809 c 3.53554,-3.53553 11.12131,-4.05024 7.58577,-0.5147 l -92.84362,92.84362 c -3.53554,3.53554 -1.15122,8.22229 2.38431,4.68676 l 96.20525,-96.20525 c 3.53553,-3.53553 7.98488,-0.91382 4.44935,2.62172 L 621.5206,447.5915 c -3.53553,3.53554 2.87873,4.19235 6.41426,0.65681 l 24.15407,-24.15407 c 3.53553,-3.53553 7.44137,-0.3703 3.90584,3.16523 l -22.45397,22.45397 c -3.53553,3.53553 1.47913,5.59193 5.01467,2.0564 l 21.22675,-21.22675 c 3.53554,-3.53554 7.28947,-0.2184 3.75393,3.31713 l -20.79473,20.79473 c -3.53553,3.53554 -0.0959,7.16699 3.43962,3.63145 l 21.28133,-21.28132 c 3.53553,-3.53554 7.7907,-0.71964 4.25516,2.8159 l -25.64582,25.64582 m -129.64145,-54.20631 0.61833,-0.61833 c 0.82443,-0.82443 10.61944,-3.54838 9.79501,-2.72394 l -20.91143,20.91143 m -107.14603,107.14603 -6.58745,6.58744 m -6.26792,6.26792 -4.51965,4.51965 c -3.53553,3.53553 -0.95778,8.02885 2.57775,4.49332 l 78.66786,-78.66786 c 3.53554,-3.53553 2.37066,4.70041 -1.16487,8.23594 l -71.75065,71.75065 c -3.53553,3.53553 1.79832,5.27275 5.33385,1.73722 l 61.73581,-61.73581 c 3.53554,-3.53554 -2.84911,9.92017 -6.38464,13.45571 l -54.05359,54.05359 c -3.53554,3.53553 3.74723,3.32383 7.28277,-0.2117 l 44.12169,-44.12169 c 3.53553,-3.53554 1.68765,5.38341 -1.84789,8.91895 l -39.82965,39.82965 m 386.46229,-421.81763 43.3261,-43.32609 c 3.53553,-3.53554 6.82888,0.24218 3.29334,3.77772 l -49.15026,49.15026 c -1.77127,1.77127 -5.14296,-1.92811 -3.37168,-3.69938 l 1.32845,-1.32846 m -247.13433,247.13433 -13.75919,13.7592 m 319.47177,-305.32964 -52.07038,52.07038 c -3.53553,3.53553 0.79368,6.27739 4.32921,2.74185 l 49.55965,-49.55964 c 3.53554,-3.53554 8.22479,-1.15372 4.68926,2.38181 l -39.24858,39.24858 m -1.75319,1.75319 -9.65631,9.6563 c -3.53553,3.53554 2.49274,4.57833 6.02828,1.04279 L 859.892,117.29622 m -49.96977,57.04084 63.75608,-63.75608 c 3.53553,-3.53553 7.25704,-0.18597 3.72151,3.34956 l -65.10924,65.10923 c -1.67409,1.6741 -7.54673,0.47567 -5.87264,-1.19842 l 0.51588,-0.51588 c 0.98626,-0.98626 1.11393,5.95713 0.12768,6.94339 v 0 c -0.98625,0.98625 -1.44925,8.52031 -0.46299,7.53406 l 42.25787,-42.25788 c 3.53554,-3.53553 11.70502,2.43713 8.16948,5.97266 l -43.4042,43.4042 c -3.53553,3.53554 -0.45239,7.52346 3.08314,3.98793 l 58.0631,-58.0631 c 3.53554,-3.53554 7.89733,-0.82626 4.36179,2.70927 l -4.59767,4.59768 c -3.53553,3.53553 0.17377,6.89729 3.7093,3.36176 l 4.70479,-4.70478 c 3.53553,-3.53554 7.68867,-0.61761 4.15314,2.91792 l -1.33198,1.33198 c -3.53553,3.53554 0.0726,6.99848 3.60812,3.46295 l 2.09418,-2.09418 c 3.53554,-3.53554 6.51941,0.55166 2.98387,4.0872 l -1.46711,1.46711 c -3.53553,3.53553 0.11831,6.95275 3.65385,3.41722 l 0.86506,-0.86507 c 3.29183,-3.29182 5.98074,1.09034 2.68891,4.38216 l -0.29152,0.29153 c -2.90313,2.90313 0.98769,6.08337 3.89082,3.18024 v 0 c 2.90314,-2.90313 7.05753,0.0135 4.1544,2.91667 l -0.18077,0.18077 c -3.14416,3.14416 -0.29417,7.36524 2.84999,4.22108 l 7.04426,-7.04426 c 3.53553,-3.53554 6.65041,0.42066 3.11487,3.95619 l -36.76869,36.7687 c -3.53553,3.53553 -7.21163,0.14056 -3.6761,-3.39498 l 18.18963,-18.18962 c 3.53553,-3.53554 4.05326,-11.12433 0.51773,-7.5888 l -19.67215,19.67215 c -3.53553,3.53553 -7.10357,0.0325 -3.56803,-3.50304 l 18.83379,-18.83378 c 3.53553,-3.53554 -0.14168,-6.9294 -3.67721,-3.39386 l -32.53698,32.53698 c -3.53553,3.53553 -7.73221,0.66114 -4.19668,-2.87439 l 33.01898,-33.01898 c 3.53554,-3.53554 -0.99598,-6.07509 -4.53152,-2.53955 l -34.61556,34.61556 c -3.53553,3.53553 -5.58998,-1.48109 -2.05444,-5.01662 l 32.57164,-32.57165 c 3.53553,-3.53553 -0.55772,-6.51335 -4.09325,-2.97781 l -32.01425,32.01424 c -3.53553,3.53554 -5.49905,-1.57201 -1.96352,-5.10755 l 7.73696,-7.73695 m 23.41796,-58.77331 8.93976,-8.93976 c 3.53553,-3.53553 6.64709,0.42398 3.11156,3.95952 l -75.17465,75.17464 m 53.43891,-60.50998 5.45529,-5.45529 c 3.53554,-3.53553 8.5816,5.56054 5.04606,9.09608 l -8.38118,8.38118 c -1.92866,1.92866 -9.83978,-4.30235 -7.91112,-6.23101 l 1.4465,-1.4465 m -266.1617,266.1617 1.22799,-1.228 c 0.78017,-0.78016 5.04852,2.02255 4.26836,2.80272 l -0.58512,0.58512 m 281.94237,-274.87131 8.74174,-8.74174 c 3.53554,-3.53553 6.8138,0.25727 3.27827,3.7928 l -6.4101,6.4101 c -3.53553,3.53553 -1.16844,8.23951 2.36709,4.70397 l 7.15803,-7.15802 c 3.53553,-3.53554 3.95223,3.11884 0.41669,6.65437 l -3.8404,3.8404 c -3.53553,3.53553 3.24661,3.82447 6.78214,0.28893 l 2.68107,-2.68106 c 3.53553,-3.53554 5.78145,1.28961 2.24591,4.82515 l -1.80814,1.80814 c -3.53553,3.53553 -0.26831,7.33938 3.26722,3.80385 l 0.86151,-0.86151 c 3.48792,-3.48793 5.97923,1.09184 2.49131,4.57976 l -0.2464,0.24639 c -3.1594,3.1594 -0.0261,7.09717 3.1333,3.93777 v 0 c 3.1594,-3.1594 5.99889,1.07218 2.83949,4.23158 l -0.47366,0.47366 c -3.15455,3.15455 0.46913,6.60194 3.62367,3.44739 l 2.36591,-2.3659 m -103.44655,46.87801 51.73171,-51.73172 c 3.53554,-3.53553 7.80004,-0.72897 4.26451,2.80657 l -19.90164,19.90163 m -232.38261,225.31154 1.53395,-1.53394 M 835.9873,197.76946 824.438,209.31876 c -3.53553,3.53553 -1.09147,8.16254 2.44407,4.627 l 7.38784,-7.38784 c 2.66544,-2.66544 5.66838,1.40269 3.00294,4.06813 l -1.99907,1.99907 m -12.84909,5.77802 -1.22241,1.22241 c -1.62988,1.62988 1.01868,6.05239 2.64857,4.42251 l 3.71732,-3.71733 m 1.61097,-1.61097 2.39717,-2.39717 c 3.19623,-3.19623 11.8206,-4.74953 8.62437,-1.5533 l -15.18723,15.18723 c -3.53554,3.53553 -0.061,7.13207 3.47453,3.59653 L 844.14304,217.898 c 2.27432,-2.27432 5.33716,1.73391 3.06284,4.00823 l -0.17615,0.17614 c -2.03946,2.03947 0.92998,6.14109 2.96944,4.10163 l 0.67865,-0.67865 c 1.13461,-1.13461 2.92719,-9.99826 1.79258,-8.86365 l -0.14173,0.14173 c -0.94564,0.94564 1.84413,5.22694 2.78977,4.2813 v 0 c 0.94565,-0.94565 10.15647,3.98567 9.21082,4.93131 l -1.84833,1.84834 c -3.41009,3.41009 -0.65568,7.72675 2.75441,4.31665 l 2.23268,-2.23267 c 0.92093,-0.92093 3.66985,3.40121 2.74892,4.32214 v 0 c -0.92093,0.92093 1.40585,5.66522 2.32679,4.74429 l 0.3867,-0.38671 c 1.43655,-1.43655 4.43475,2.63632 2.99821,4.07286 l -3.84575,3.84575 c -1.42389,1.42389 0.7833,6.28777 2.20719,4.86388 v 0 c 1.42389,-1.4239 4.29265,2.77842 2.86876,4.20231 l -0.40639,0.40638 c -0.89375,0.89376 2.42472,4.64635 3.31848,3.7526 v 0 c 0.89375,-0.89376 9.17659,-2.10553 8.28283,-1.21177 l -2.15969,2.15969 c -1.67127,1.67127 -2.69946,-4.37161 -1.02819,-6.04287 l 0.16639,-0.1664 c 1.44941,-1.4494 -1.17728,-5.89378 -2.62669,-4.44438 l -0.32838,0.32839 c -1.01156,1.01156 -4.18594,-2.88513 -3.17438,-3.89669 l 0.0426,-0.0427 c 0.95469,-0.95468 7.44972,-0.37865 6.49504,0.57604 v 0 c -0.95469,0.95468 3.18429,3.88677 4.13898,2.93209 l 44.48021,-44.48022 c 3.53554,-3.53553 0.21713,-7.2882 -3.3184,-3.75266 l -39.88587,39.88586 c -3.53553,3.53553 -6.32324,-0.74782 -2.78771,-4.28336 l 39.997,-39.99699 c 3.46662,-3.46662 1.19339,-8.26446 -2.27323,-4.79784 l -2.59997,2.59997 m -545.03234,474.32166 -0.45579,0.45579 c -0.60772,0.60772 0.90021,6.17085 1.50793,5.56313 l 19.03319,-19.03318 m 12.91461,-12.91461 1.69216,-1.69216 c 2.25621,-2.25621 4.81462,2.25645 2.55841,4.51266 l -36.00678,36.00677 c -3.53553,3.53554 -2.83828,9.90936 0.69725,6.37382 l 37.10547,-37.10546 c 3.53553,-3.53554 6.113,0.95807 2.57746,4.4936 l -36.42862,36.42863 c -3.53554,3.53553 -5.42614,12.4972 -1.89061,8.96167 l 36.86637,-36.86637 c 1.60982,-1.60982 14.9357,-7.86463 13.32588,-6.25481 v 0 c -1.60982,1.60982 1.3177,5.75336 2.92752,4.14354 l 15.85593,-15.85592 c 3.53553,-3.53554 4.23807,2.83299 0.70254,6.36853 l -12.47622,12.47621 c -3.53553,3.53553 -1.24426,8.31533 2.29127,4.77979 l 13.53417,-13.53416 c 3.53553,-3.53553 11.71738,-4.64631 8.18184,-1.11078 l -20.32372,20.32372 c -3.53553,3.53554 -3.0575,10.12857 0.47804,6.59304 L 462.47165,663.209 c 3.53553,-3.53554 6.39966,0.6714 2.86413,4.20693 l -20.54395,20.54395 c -3.53554,3.53554 -0.0544,7.12551 3.48109,3.58998 l 25.04774,-25.04774 M 842.39076,226.72134 830.0315,239.0806 c -3.22461,3.22461 -0.8324,7.90347 2.39221,4.67886 l 0.74015,-0.74015 c 2.23774,-2.23774 5.4975,1.57357 3.25977,3.8113 v 0 c -2.23774,2.23774 -0.50294,7.57401 1.73479,5.33628 l 2.11178,-2.11178 c 3.53553,-3.53554 5.95188,1.11918 2.41635,4.65471 l -3.25843,3.25844 c -2.7302,2.73019 2.69002,4.38104 5.42022,1.65085 l 1.27403,-1.27403 c 1.03148,-1.03149 -1.79678,8.86784 -2.82826,9.89933 v 0 c -1.03149,1.03148 0.82762,6.24344 1.85911,5.21195 l 2.49161,-2.49161 c 0.892,-0.892 0.84324,6.22782 -0.0488,7.11982 v 0 c -0.892,0.892 0.36943,6.70165 1.26142,5.80965 l 0.22356,-0.22355 c 1.19007,-1.19007 0.88717,6.18389 -0.3029,7.37396 l -1.16554,1.16554 c -1.91237,1.91237 -5.36819,-1.70287 -3.45582,-3.61524 v 0 c 1.91237,-1.91238 -2.07727,-4.9938 -3.98965,-3.08143 l -2.30174,2.30175 c -1.24735,1.24734 -1.71646,-5.35461 -0.46912,-6.60195 v 0 c 1.24734,-1.24734 -0.0156,-7.05544 -1.26298,-5.80809 l -0.54439,0.54439 c -1.9732,1.9732 -4.44883,-2.62224 -2.47563,-4.59544 l 1.62923,-1.62922 c 0.72129,-0.7213 -1.43676,-5.63432 -2.15805,-4.91302 l -0.0247,0.0247 c -0.68837,0.68837 -7.26858,-6.87356 -6.58021,-7.56192 l 0.51627,-0.51628 m -213.57894,199.4368 -62.97444,62.97445 c -3.53554,3.53553 -0.7184,7.78946 2.81714,4.25392 l 21.91134,-21.91134 c 3.53553,-3.53553 8.87197,-1.8009 5.33644,1.73463 l -24.30354,24.30354 c -3.53554,3.53554 -0.49614,7.56721 3.03939,4.03167 l 26.89571,-26.8957 c 3.53553,-3.53553 9.42525,-2.35419 5.88972,1.18135 l -29.65182,29.65182 c -3.53554,3.53553 -0.31887,7.38993 3.21666,3.8544 l 7.53082,-7.53081 m 298.89254,-327.17682 -1.1541,1.1541 c -1.0877,1.0877 2.58858,4.48249 3.67628,3.39479 v 0 c 1.08769,-1.0877 -6.63934,-0.43173 -7.72704,0.65597 l -2.8163,2.8163 m -18.82629,18.82629 -4.21598,4.21598 c -3.45228,3.45229 0.528,6.54306 3.98028,3.09078 v 0 c 3.45229,-3.45228 8.36855,-1.29747 4.91627,2.15481 l -2.5426,2.5426 c -2.76375,2.76375 0.41696,6.65411 3.18071,3.89036 v 0 c 2.76375,-2.76375 6.17921,0.89185 3.41547,3.65559 l -1.86935,1.86935 c -1.43679,1.43679 5.06973,2.00134 6.50653,0.56454 v 0 c 1.4368,-1.4368 5.49753,1.57354 4.06073,3.01033 l -0.91584,0.91585 c -2.48916,2.48916 -0.96967,8.04073 1.51949,5.55157 l 0.34229,-0.34229 c 2.03278,-2.03277 4.71712,2.35395 2.68434,4.38673 l -0.19538,0.19538 c -1.77226,1.77227 2.10316,4.96791 3.87542,3.19565 v 0 c 1.77226,-1.77226 9.52919,-2.45813 7.75693,-0.68586 l -4.19168,4.19168 c -2.40163,2.40163 0.75047,6.32059 3.1521,3.91896 v 0 c 2.40163,-2.40162 9.54794,-2.47687 7.14631,-0.0752 l -8.25243,8.25243 c -1.25032,1.25032 -8.91694,1.84587 -7.66662,0.59556 v 0 c 1.25032,-1.25032 4.78459,2.28648 3.53427,3.5368 l -1.43105,1.43105 c -3.15839,3.15839 1.06501,6.00606 4.22339,2.84767 l 12.61587,-12.61586 c 3.53553,-3.53554 7.6043,-0.53324 4.06877,3.00229 l -14.08943,14.08943 c -3.53553,3.53553 -4.2164,11.28747 -0.68087,7.75194 l 10.49942,-10.49942 c 3.53553,-3.53554 8.99463,-1.92357 5.4591,1.61197 l -12.86834,12.86834 c -3.53554,3.53553 -5.43367,12.50473 -1.89813,8.9692 l 19.19164,-19.19165 c 3.53554,-3.53553 6.6269,0.44418 3.09136,3.97971 l -17.41146,17.41146 c -3.53554,3.53554 1.19947,5.8716 4.73501,2.33606 l 36.56539,-36.56539 c 3.53553,-3.53553 0.38086,-7.45193 -3.15468,-3.91639 l -1.32274,1.32274 c -3.53553,3.53553 -5.62154,-1.44953 -2.086,-4.98506 l 0.031,-0.031 c 3.53554,-3.53553 0.48728,-7.55835 -3.04825,-4.02281 l -7.0558,7.0558 c -3.53554,3.53553 -7.43616,0.36509 -3.90063,-3.17045 l 8.41996,-8.41995 c 3.53553,-3.53553 0.24794,-7.31901 -3.28759,-3.78348 l -9.20338,9.20338 c -3.53553,3.53553 -7.14335,0.0723 -3.60781,-3.46326 l 2.27454,-2.27454 c 3.53554,-3.53553 1.34555,-15.48768 -2.18998,-11.95215 l -6.56879,6.56878 c -3.53553,3.53554 -0.3578,7.42887 3.17774,3.89334 l 17.44079,-17.44079 c 3.53553,-3.53554 6.9956,0.0755 3.46007,3.61099 l -8.61232,8.61232 c -3.53553,3.53553 7.37274,-0.30167 10.90828,-3.83721 l 24.79668,-24.79668 c 3.53554,-3.53554 5.72773,1.34334 2.1922,4.87887 l -17.66472,17.66472 c -3.53553,3.53553 -5.46636,12.53743 -1.93083,9.0019 l 9.08141,-9.08142 c 3.04991,-3.04991 13.19291,-6.12184 10.143,-3.07193 v 0 c -3.0499,3.04991 -5.78901,-1.28205 -2.73911,-4.33196 l 6.84626,-6.84626 c 1.76449,-1.76448 3.86181,3.20927 2.09732,4.97375 l -0.76724,0.76725 c -0.7415,0.74149 2.19422,4.87684 2.93571,4.13535 l 0.55612,-0.55612 m -361.63814,234.35892 26.9256,-26.9256 c 3.53554,-3.53554 9.19823,-2.12716 5.6627,1.40837 l -30.26721,30.26721 c -3.53554,3.53554 1.90743,5.16363 5.44297,1.6281 l 29.367,-29.367 c 3.53553,-3.53554 8.2711,-1.20003 4.73556,2.3355 L 602.311,495.08539 c -3.53554,3.53553 2.96349,4.10758 6.49902,0.57204 l 26.97975,-26.97974 c 3.53553,-3.53554 8.48424,-1.41318 4.9487,2.12236 l -24.15686,24.15686 c -3.53554,3.53554 7.13355,-0.0625 10.66909,-3.59802 l 47.94211,-47.94211 c 3.53553,-3.53553 6.85032,0.22075 3.31478,3.75628 l -43.14509,43.1451 c -3.53553,3.53553 7.01913,0.0519 10.55466,-3.4836 l 36.87027,-36.87026 c 3.53553,-3.53554 7.44205,-0.37098 3.90651,3.16455 l -29.30492,29.30493 c -3.53554,3.53553 1.48375,5.58731 5.01928,2.05178 l 28.06683,-28.06682 c 3.53553,-3.53554 6.63026,0.4408 3.09473,3.97633 l -7.85153,7.85153 c -1.17217,1.17217 3.25204,3.81903 4.42421,2.64686 v 0 c 1.17217,-1.17217 -6.14057,-0.93051 -7.31273,0.24166 l -0.86906,0.86906 c -2.33091,2.33091 10.91237,-3.8413 13.24328,-6.17221 l 1.54531,-1.54531 c 1.56274,-1.56274 3.46857,3.6025 1.90583,5.16523 l -1.17205,1.17206 m -110.84444,18.92055 -4.84221,4.84221 m 320.90983,-306.76769 2.91974,-2.91974 m -470.14573,470.14573 9.98586,-9.98586 m -31.99735,31.99735 -31.36929,31.36928 c -3.53553,3.53554 -3.48611,10.55719 0.0494,7.02165 l 21.32288,-21.32287 c 3.53553,-3.53553 -2.11655,9.18761 -5.65209,12.72315 l -15.19215,15.19215 c -3.53553,3.53553 -3.12769,10.19876 0.40784,6.66323 l 10.32791,-10.32791 c 3.53553,-3.53553 0.85949,6.21158 -2.67605,9.74711 l -7.83341,7.83342 c -3.53553,3.53553 -1.43688,8.50794 2.09866,4.97241 l 3.34111,-3.34111 c 3.53553,-3.53554 1.49888,5.57218 -2.03665,9.10771 l -5.58462,5.58463 c -2.54081,2.5408 1.97388,5.09718 4.51468,2.55638 l 1.15559,-1.15559 c 1.00003,-1.00003 13.29872,0.84342 12.29869,1.84345 l -0.28459,0.28458 c -0.62057,0.62058 2.6082,-9.67926 3.22878,-10.29984 v 0 c 0.62058,-0.62058 3.5547,3.51637 2.93412,4.13695 l -0.44622,0.44622 c -1.21553,1.21553 -6.45203,-7.69011 -5.23649,-8.90565 l 2.08692,-2.08692 c 1.04094,-1.04094 7.93488,-0.86381 6.89394,0.17713 l -0.78071,0.7807 m 471.20874,-520.70621 0.62755,-0.62754 c 0.83672,-0.83672 4.04734,3.02373 3.21061,3.86045 l -0.0673,0.0673 c -0.92652,0.92652 2.09165,4.97943 3.01816,4.05291 l 0.38364,-0.38364 c 1.43803,-1.43803 5.62127,1.4498 4.18324,2.88783 l -0.67699,0.67699 c -2.34068,2.34068 0.14492,-7.21599 2.4856,-9.55667 l 33.59895,-33.59895 c 3.53554,-3.53554 1.77546,-8.84653 -1.76007,-5.311 l -35.23306,35.23306 c -3.53553,3.53554 5.90864,8.2335 9.44417,4.69797 l 19.86012,-19.86012 m -40.02705,25.88492 -0.44966,0.44965 c -0.59954,0.59954 6.44085,7.70128 7.04039,7.10175 l 2.49097,-2.49097 m -20.47521,6.33307 2.08774,-2.08774 m -8.90351,8.90351 -1.40595,1.40596 m -282.7628,282.76281 22.57154,-22.57155 c 3.53554,-3.53553 9.08761,-2.01654 5.55208,1.51899 l -34.61803,34.61803 c -3.53553,3.53553 -0.0635,7.13454 3.47206,3.59901 l 37.97586,-37.97586 c 3.53554,-3.53554 10.99995,-3.92888 7.46441,-0.39335 l -8.4472,8.44721 c -3.53553,3.53553 4.96411,2.10695 8.49965,-1.42858 l 9.19521,-9.19521 c 3.53553,-3.53553 15.52154,-8.45047 11.986,-4.91494 l -13.14598,13.14599 c -3.53554,3.53553 6.17165,0.89941 9.70719,-2.63613 l 7.02863,-7.02863 m -182.87121,147.51587 2.25569,-2.25569 m 380.63212,-373.56105 -0.61264,0.61264 c -0.81686,0.81686 12.75239,1.38974 13.56925,0.57288 l 0.60434,-0.60434 c 1.62264,-1.62264 2.61121,-9.68227 0.98857,-8.05963 l -1.57894,1.57894 c -2.19498,2.19497 2.20309,4.86798 4.39806,2.673 l 0.74813,-0.74813 c 1.19747,-1.19747 6.89782,7.24432 5.70035,8.44179 l -0.89811,0.89811 m -39.66032,11.37605 1.43665,-1.43665 m 40.54974,-33.47868 0.59724,-0.59724 c 0.79632,-0.79631 4.16683,2.90425 3.37051,3.70057 l -0.16155,0.16155 c -1.01172,1.01172 1.29366,5.7774 2.30538,4.76568 l 1.00334,-1.00334 c 0.96484,-0.96483 7.45854,6.6836 6.49371,7.64843 l -0.72363,0.72363 m -280.65567,252.3714 -23.9291,23.9291 c -3.53554,3.53553 0.93162,6.13944 4.46716,2.60391 l 9.17495,-9.17495 c 3.53553,-3.53554 6.23236,0.8387 2.69683,4.37423 l -7.23526,7.23526 c -3.53554,3.53554 1.44052,5.63055 4.97606,2.09501 l 9.88749,-9.88749 c 0.61305,-0.61305 -1.25234,-5.81872 -1.8654,-5.20567 l -0.45978,0.45979 m -114.86172,107.79064 -5.33872,5.33872 c -3.53553,3.53554 -1.96532,9.03639 1.57022,5.50086 l 13.78675,-13.78675 c 3.53553,-3.53554 12.81504,-5.74398 9.2795,-2.20844 l -52.76029,52.76029 c -3.53554,3.53554 1.49821,5.57286 5.03375,2.03732 l 56.12248,-56.12248 c 3.53553,-3.53553 10.50448,-3.43342 6.96895,0.10212 l -59.90972,59.90971 c -3.53553,3.53554 -2.68946,9.76053 0.84608,6.225 l 64.1031,-64.1031 c 3.53553,-3.53554 8.19655,-1.12549 4.66102,2.41005 l -66.38874,66.38874 c -3.53554,3.53553 -5.06852,12.13959 -1.53299,8.60405 l 72.31515,-72.31514 c 3.53553,-3.53554 7.63613,-0.56507 4.1006,2.97046 l -35.16687,35.16687 c -1.76501,1.765 3.11526,3.9558 4.88027,2.19079 l 1.32376,-1.32375 m 333.73254,-390.30109 -1.32162,1.32162 c -1.18706,1.18707 2.3036,4.76747 3.49066,3.58041 l 0.0221,-0.0221 c 1.15757,-1.15756 -2.91225,9.98332 -4.06981,11.14089 v 0 c -1.15757,1.15757 1.48692,5.58415 2.64448,4.42658 l 0.81648,-0.81647 c 2.2462,-2.2462 6.87276,0.1983 4.62656,2.4445 l -1.55801,1.55801 c -2.50373,2.50373 0.22063,6.85044 2.72436,4.34671 l 0.27858,-0.27858 c 2.13229,-2.13229 4.06554,3.00553 1.93326,5.13781 v 0 c -2.13229,2.13229 -0.20812,7.27919 1.92417,5.1469 l 0.33595,-0.33595 c 2.43329,-2.4333 5.15929,1.91177 2.726,4.34506 v 0 c -2.43329,2.4333 -0.29904,7.37011 2.13426,4.93682 l 4.48319,-4.48319 c 3.53553,-3.53554 7.23887,-0.16781 3.70334,3.36772 l -1.68797,1.68797 c -3.53553,3.53553 1.72545,5.34562 5.26099,1.81008 l 2.65434,-2.65434 c 0.97741,-0.97741 4.28068,2.79039 3.30327,3.7678 l -0.27863,0.27863 c -0.6059,0.6059 -1.18451,8.25557 -0.57861,7.64967 v 0 c 0.6059,-0.6059 3.98539,3.08568 3.3795,3.69158 l -1.50386,1.50385 c -2.29025,2.29025 5.13485,1.93622 7.4251,-0.35403 l 0.41268,-0.41268 c 1.74,-1.74 0.10555,-7.17662 -1.63445,-5.43662 v 0 c -1.74001,1.74001 6.99814,0.0729 8.73814,-1.66707 l 12.76093,-12.76093 c 3.08555,-3.08555 0.91897,-7.99004 -2.16658,-4.90449 v 0 c -3.08555,3.08555 -8.67475,1.60368 -5.5892,-1.48187 l 26.88083,-26.88083 c 3.53554,-3.53553 0.90592,-7.97698 -2.62961,-4.44145 l -27.17605,27.17605 c -3.53554,3.53553 -6.05204,-1.01903 -2.51651,-4.55457 l 27.90219,-27.90218 c 3.53553,-3.53553 -2.97814,-11.164 -6.51367,-7.62847 l -4.87219,4.87219 c -3.53553,3.53553 -6.97904,-0.092 -3.44351,-3.62756 l 5.78368,-5.78367 c 2.63368,-2.63368 -6.93747,-0.1336 -9.57115,2.50008 v 0 c -2.63368,2.63367 -8.77254,1.70147 -6.13886,-0.93221 l 3.78164,-3.78164 m -82.48569,40.05928 0.73561,-0.73561 c 0.98082,-0.98082 0.62222,13.51992 -0.3586,14.50073 l -0.1365,0.13651 c -1.16283,1.16283 0.88975,6.18131 2.05258,5.01849 l 0.20807,-0.20807 c 1.44025,-1.44025 3.47357,3.5975 2.03332,5.03775 l -0.15706,0.15705 c -1.64966,1.64967 0.38719,6.68388 2.03685,5.03422 l 0.10965,-0.10965 c 1.79588,-1.79587 4.51502,2.55605 2.71915,4.35192 l -0.13587,0.13587 c -1.72537,1.72537 1.4354,5.63567 3.16077,3.9103 v 0 c 1.72537,-1.72537 4.55649,2.51458 2.83112,4.23995 l -1.65829,1.65828 c -2.99851,2.99852 1.40141,5.66966 4.39993,2.67114 v 0 c 2.99852,-2.99851 13.25036,-6.17929 10.25185,-3.18078 l -11.13972,11.13972 c -3.53553,3.53553 -2.11868,9.18975 1.41685,5.65422 l 11.30886,-11.30887 c 3.53554,-3.53553 5.27615,1.79493 1.74061,5.33046 l -28.07549,28.0755 c -1.89461,1.8946 1.24894,5.82212 3.14354,3.92752 l 0.80293,-0.80293 c 0.82403,-0.82403 2.5581,4.51297 1.73407,5.337 v 0 c -0.82403,0.82403 4.33227,2.7388 5.1563,1.91477 l 21.4121,-21.4121 c 3.53554,-3.53554 11.48802,-4.41695 7.95249,-0.88142 l -9.77776,9.77776 c -3.53553,3.53553 -0.66414,7.73521 2.87139,4.19968 l 16.04847,-16.04847 c 3.53553,-3.53554 8.38867,-1.31761 4.85314,2.21793 l -12.82096,12.82095 c -3.53553,3.53554 2.87454,4.19653 6.41008,0.66099 l 9.14993,-9.14992 c 3.53553,-3.53554 10.4749,-3.40384 6.93936,0.1317 l -10.77427,10.77427 c -3.53554,3.53554 -1.43044,8.50151 2.10509,4.96597 l 4.29053,-4.29053 c 3.53554,-3.53553 13.80299,-6.73191 10.26745,-3.19638 l -12.41869,12.41869 c -3.53553,3.53554 -1.84557,8.91664 1.68997,5.3811 l 15.64189,-15.64189 c 0.63092,-0.63091 6.71044,0.36063 6.07953,0.99154 v 0 c -0.63091,0.63091 -4.1333,-2.93777 -3.50239,-3.56868 l 1.03107,-1.03107 c 1.2585,-1.2585 -2.42812,9.49919 -3.68662,10.75769 l -0.94388,0.94388 m -81.20314,-88.50249 1.06255,-1.06255 m 113.83186,-106.76079 9.91856,-9.91856 c 3.53553,-3.53553 5.90047,1.1706 2.36493,4.70613 l -9.53123,9.53123 c -3.53553,3.53554 -0.12724,7.19831 3.40829,3.66278 l 5.28198,-5.28197 c 3.53553,-3.53554 4.52505,2.54601 0.98951,6.08155 l -18.566,18.566 c -3.53553,3.53554 -6.75594,-0.31512 -3.22041,-3.85066 l 6.23802,-6.23802 c 3.53554,-3.53553 2.60057,-9.67163 -0.93497,-6.1361 l -16.44314,16.44315 c -3.53554,3.53553 -8.54753,1.47646 -5.012,-2.05907 l 9.14138,-9.14138 m 3.11786,-3.11787 10.61063,-10.61062 m -31.37703,31.37703 2.87744,-2.87744 m -40.76522,40.76522 -0.761,0.761 c -1.01468,1.01468 1.26917,5.8019 2.28385,4.78722 l 4.1122,-4.1122 c 2.29313,-2.29313 6.20041,0.87066 3.90728,3.16379 l -1.00592,1.00592 c -0.9519,0.9519 3.66316,3.4079 4.61506,2.456 l 0.16682,-0.16681 c 0.72948,-0.72948 -9.34106,2.26998 -10.07054,2.99946 v 0 c -0.72948,0.72948 -1.37427,8.44534 -0.64479,7.71586 l 2.84524,-2.84523 c 0.66312,-0.66312 4.50562,2.56545 3.8425,3.22857 v 0 c -0.66312,0.66312 3.60159,3.46947 4.26471,2.80636 l 0.67671,-0.67672 c 1.5654,-1.5654 5.5079,1.56317 3.94249,3.12858 l -1.40666,1.40666 m -257.51989,215.09348 0.93173,-0.93173 m 63.87348,-56.80241 -10.56323,10.56323 c -3.53554,3.53554 2.44133,4.62974 5.97686,1.09421 l 10.82973,-10.82974 c 3.53554,-3.53553 5.5986,1.47247 2.06307,5.008 l -7.875,7.87501 c -3.53554,3.53553 1.22395,5.84711 4.75948,2.31158 l 6.34905,-6.34905 c 3.53554,-3.53554 4.10526,2.96581 0.56972,6.50134 l -3.99781,3.99782 c -3.53553,3.53553 -0.46461,7.53568 3.07092,4.00014 l 5.06465,-5.06465 c 3.53554,-3.53553 7.53443,-0.46336 3.9989,3.07218 l -7.88346,7.88346 m -97.8287,55.40229 11.67331,-11.67332 c 3.53554,-3.53553 7.73744,-0.66636 4.20191,2.86917 l -8.45042,8.45042 c -3.53553,3.53553 1.33406,5.737 4.86959,2.20147 l 9.0226,-9.0226 c 3.53553,-3.53553 9.74631,-2.67524 6.21077,0.8603 l -10.19736,10.19736 c -3.53554,3.53554 1.95818,5.11288 5.49372,1.57735 l 12.87712,-12.87712 c 3.53554,-3.53554 10.70772,-3.63666 7.17219,-0.10112 l -4.5858,4.5858 c -3.53554,3.53553 2.50594,4.56513 6.04147,1.02959 l 4.99007,-4.99007 c 3.53554,-3.53553 9.79411,-2.72304 6.25858,0.81249 l -2.83836,2.83836 m -232.68878,190.26237 -20.20066,20.20066 c -3.53553,3.53554 -0.55283,7.62391 2.9827,4.08837 l 20.49942,-20.49942 c 3.53554,-3.53553 10.30651,-3.23544 6.77098,0.30009 l -24.482,24.482 c -3.53554,3.53554 -2.69934,9.7704 0.8362,6.23487 l 27.38483,-27.38484 c 3.53554,-3.53553 15.02536,-7.95429 11.48983,-4.41875 l -39.64779,39.64779 m 452.84962,-466.99176 0.89839,-0.89839 c 1.19787,-1.19786 5.00602,2.06505 3.80816,3.26291 l -0.32103,0.32103 c -1.62589,1.62589 1.79099,5.28008 3.41688,3.65419 l 8e-4,-8.1e-4 c 1.62697,-1.62696 4.51159,2.55949 2.88462,4.18645 l -1.74076,1.74077 m 58.82534,-72.96748 -1.21318,1.21318 c -1.61757,1.61757 5.63845,8.50369 7.25602,6.88612 l 2.81634,-2.81635 c 3.53553,-3.53553 6.68924,0.38183 3.1537,3.91737 l -1.3905,1.3905 c -2.44629,2.44629 1.87536,5.19571 4.32165,2.74942 l 0.50391,-0.50391 c 1.77441,-1.77441 4.92268,2.14838 3.14828,3.92279 v 0 c -1.77441,1.77441 2.02898,5.04209 3.80338,3.26768 l 3.74374,-3.74373 c 1.93049,-1.93049 -0.0289,-7.04222 -1.95934,-5.11173 l -0.25514,0.25514 c -1.59031,1.5903 -3.10075,-3.97032 -1.51044,-5.56063 l 0.34961,-0.34961 c 1.12416,-1.12416 8.40196,-1.33089 7.2778,-0.20673 v 0 c -1.12416,1.12416 0.73642,6.33465 1.86058,5.21049 l 0.14322,-0.14322 c 1.31512,-1.31512 3.62612,3.44495 2.31099,4.76007 l -0.43712,0.43712 c -0.8829,0.8829 1.70463,5.36644 2.58752,4.48355 v 0 c 0.8829,-0.8829 -6.92102,-0.15004 -7.80392,0.73285 l -8.75726,8.75727 c -3.53554,3.53553 -1.02461,8.09567 2.51092,4.56014 l 1.69597,-1.69597 c 1.53012,-1.53012 0.61006,6.461 -0.92005,7.99112 v 0 c -1.53012,1.53012 1.85999,5.21107 3.39011,3.68096 l 5.90416,-5.90416 c 3.53553,-3.53554 6.25669,0.81438 2.72115,4.34991 l -4.11483,4.11483 c -3.53553,3.53553 -2.39193,9.463 1.14361,5.92746 l 5.03516,-5.03516 c 3.53553,-3.53553 6.63636,0.43471 3.10083,3.97024 l -0.80857,0.80857 c -3.15008,3.15008 -0.91151,7.98258 2.23857,4.8325 l 1.80867,-1.80868 c 0.73852,-0.73851 -0.19442,7.2655 -0.93294,8.00401 v 0 c -0.73852,0.73852 -13.46777,-0.67436 -12.72926,-1.41288 l 2.68858,-2.68857 c 3.53553,-3.53553 4.81376,2.2573 1.27823,5.79283 l -2.45236,2.45236 c -3.53553,3.53554 -1.35437,8.42544 2.18117,4.8899 l 2.18237,-2.18237 c 3.53554,-3.53553 4.57086,2.50022 1.03532,6.03575 l -4.90364,4.90364 c -3.53553,3.53553 1.19099,5.88008 4.72653,2.34454 l 3.77599,-3.77599 c 1.42566,-1.42567 2.27641,4.79466 0.85074,6.22032 l -0.09,0.09 c -1.3057,1.3057 -13.65414,6.58307 -12.34844,5.27737 v 0 c 1.30571,-1.30571 2.22238,4.84869 0.91667,6.1544 l -0.42155,0.42154 c -1.86777,1.86777 4.5735,9.56865 6.44127,7.70088 l 0.99512,-0.99513 c 1.2216,-1.2216 7.18776,-0.11669 5.96615,1.10492 v 0 c -1.22159,1.2216 -2.10044,9.17151 -0.87884,7.94991 l 0.84618,-0.84618 c 2.34983,-2.34984 -12.42987,-1.71227 -14.77971,0.63757 l -5.28427,5.28427 c -1.72471,1.72471 -0.3377,7.40877 1.38701,5.68406 v 0 c 1.72471,-1.7247 6.76632,0.30475 5.04161,2.02946 l -1.82507,1.82507 c -3.4397,3.4397 -0.91743,7.9885 2.52226,4.5488 v 0 c 3.4397,-3.43969 6.64789,0.42319 3.20819,3.86288 l -1.7231,1.72311 c -3.53553,3.53553 -2.89297,9.96404 0.64256,6.4285 l 2.85996,-2.85996 c 3.53553,-3.53553 3.20745,3.86362 -0.32808,7.39915 l -3.08777,3.08778 c -1.17608,1.17607 -7.42629,0.35521 -6.25021,-0.82086 v 0 c 1.17607,-1.17608 -1.33189,-5.73918 -2.50797,-4.5631 l -16.43838,16.43838 c -3.53554,3.53553 1.78533,5.28573 5.32087,1.7502 l 7.27102,-7.27102 c 3.53553,-3.53554 9.75135,-2.68028 6.21581,0.85525 l -6.65974,6.65974 c -3.53553,3.53553 3.3316,3.73947 6.86714,0.20393 l 9.50108,-9.50108 c 3.53554,-3.53554 2.42236,4.6487 -1.11317,8.18424 l -2.86626,2.86626 c -1.7988,1.7988 1.91424,5.15682 3.71305,3.35802 l 1.3491,-1.34911 M 806.312,375.93719 l -0.90739,0.90739 c -1.20985,1.20985 2.20569,4.86537 3.41554,3.65552 l 0.1259,-0.1259 c 1.37772,-1.37772 9.90992,-2.83885 8.53221,-1.46113 l -3.51166,3.51166 c -3.53553,3.53553 -0.45147,7.52253 3.08407,3.98699 l 1.21996,-1.21996 c 3.53554,-3.53553 6.49284,0.57823 2.95731,4.11376 l -2.80736,2.80736 c -3.53553,3.53553 -0.59638,7.66745 2.93915,4.13191 l 4.09693,-4.09692 c 2.17445,-2.17446 2.67493,11.4672 0.50048,13.64166 v 0 c -2.17446,2.17445 0.18906,6.882 2.36352,4.70755 l 24.57158,-24.57158 c 3.53553,-3.53554 -0.94333,-6.12774 -4.47887,-2.59221 l -18.56758,18.56759 m -33.56575,-15.93173 -0.98438,0.98438 c -1.3125,1.3125 3.75538,3.31569 5.06788,2.00319 l 0.23866,-0.23866 c 1.63072,-1.63072 7.38193,-0.31087 5.75122,1.31985 l -1.36677,1.36677 c -1.29158,1.29158 5.16268,8.97945 6.45425,7.68788 v 0 c 1.29158,-1.29158 5.01902,2.05205 3.72744,3.34362 l -0.93643,0.93643 c -1.1073,1.10731 -3.3953,10.46637 -2.288,9.35907 v 0 c 1.1073,-1.1073 -1.8577,-5.21336 -2.965,-4.10606 l -2.09711,2.09711 c -3.53554,3.53553 -6.93736,-0.13371 -3.40183,-3.66924 l 1.20843,-1.20843 c 2.9193,-2.9193 0.18208,-7.25315 -2.73722,-4.33385 v 0 c -2.9193,2.9193 -7.82612,0.75505 -4.90682,-2.16425 l 2.09498,-2.09498 c 2.85699,-2.85699 -1.94845,-5.12262 -4.80543,-2.26563 l -0.61825,0.61825 c -2.03265,2.03265 -7.12717,0.0561 -5.09452,-1.97656 l 1.52449,-1.52449 m -232.00325,232.00326 1.07803,-1.07803 c 1.43738,-1.43738 4.18498,2.88609 2.7476,4.32346 l -2.72445,2.72445 c -3.53553,3.53554 -5.66905,12.74013 -2.13352,9.20459 l 6.30468,-6.30468 c 3.53554,-3.53553 6.84831,0.22276 3.31277,3.7583 l -10.94517,10.94517 c -3.53553,3.53554 8.34022,-1.26915 11.87575,-4.80468 l 2.13804,-2.13804 c 3.53553,-3.53553 6.23506,0.83601 2.69952,4.37154 l -1.16084,1.16085 c -3.53554,3.53554 -0.0954,7.16645 3.44014,3.63092 l 1.0464,-1.0464 c 3.53554,-3.53553 6.37555,0.69552 2.84002,4.23105 l -0.55577,0.55577 c -3.53553,3.53554 -0.41963,7.4907 3.1159,3.95517 l 0.33104,-0.33104 c 3.53554,-3.53553 7.80261,-0.73154 4.26708,2.80399 l -1.83303,1.83303 c -3.45665,3.45665 -0.77762,7.84869 2.67903,4.39204 l 0.68145,-0.68145 c 2.54805,-2.54806 3.9205,3.15056 1.37244,5.69862 v 0 c -2.54805,2.54806 0.24522,6.82585 2.79327,4.2778 l 1.94308,-1.94307 c 3.53553,-3.53554 9.15891,-2.08785 5.62338,1.44768 l -4.20584,4.20583 c -3.53553,3.53554 -0.40103,7.47211 3.1345,3.93657 l 4.63143,-4.63142 c 3.53553,-3.53553 6.81306,0.258 3.27753,3.79354 l -4.33911,4.3391 c -3.53553,3.53553 0.10151,6.96956 3.63705,3.43403 l 11.95649,-11.9565 c 3.53553,-3.53553 6.7435,0.32757 3.20796,3.86311 l -11.50859,11.50858 c -3.53553,3.53554 0.11688,6.9542 3.65241,3.41866 l 9.38178,-9.38177 c 3.53553,-3.53554 6.76535,0.30571 3.22982,3.84125 l -8.99164,8.99164 c -3.53553,3.53553 0.0702,7.00081 3.60579,3.46527 l 8.74248,-8.74248 c 3.53553,-3.53553 7.81757,-0.7465 4.28203,2.78904 l -9.46595,9.46595 c -3.53554,3.53554 -0.0444,7.11551 3.49109,3.57997 l 9.29139,-9.29139 c 3.53554,-3.53553 6.86077,0.2103 3.32524,3.74583 l -9.22427,9.22427 c -3.53553,3.53554 -0.30782,7.3789 3.22771,3.84336 l 9.3186,-9.3186 c 3.53554,-3.53553 6.32218,0.74889 2.78665,4.28442 l -9.12598,9.12598 c -3.53553,3.53553 -0.89592,7.96699 2.63962,4.43145 l 9.52267,-9.52267 c 3.53554,-3.53554 5.79789,1.27317 2.26236,4.80871 l -9.4941,9.4941 c -3.53553,3.53553 -1.56384,8.6349 1.9717,5.09937 l 6.96631,-6.96632 c 3.53554,-3.53553 3.75348,3.3176 0.21794,6.85313 l -5.51526,5.51526 c -3.53553,3.53553 -2.16896,9.24003 1.36657,5.70449 l 4.33042,-4.33041 c 3.53553,-3.53553 2.56101,4.51005 -0.97452,8.04559 l -2.31834,2.31834 c -3.53553,3.53553 -2.71811,9.78918 0.81742,6.25364 l 5.21014,-5.21014 m 167.33583,-386.53893 2.10626,-2.10625 m -6.46688,6.46687 -3.45218,3.45218 m -189.86653,189.86654 -5.59567,5.59567 m -128.05214,128.05213 -26.82964,26.82964 c -3.53553,3.53554 2.9176,4.15348 6.45313,0.61794 l 14.95948,-14.95948 c 3.53553,-3.53553 6.82547,0.2456 3.28994,3.78114 l -4.02034,4.02034 c -3.53554,3.53553 -3.82809,10.89915 -0.29256,7.36362 l 1.51926,-1.51926 c 1.95003,-1.95003 5.26163,1.80943 3.3116,3.75946 v 0 c -1.95003,1.95004 -15.32587,1.18374 -13.37584,-0.76629 l 3.22052,-3.22052 m 361.25313,-368.3242 0.68857,-0.68857 c 0.9181,-0.91809 3.31649,3.75458 2.3984,4.67268 l -1.2352,1.2352 m -318.13078,311.05971 16.95839,-16.9584 c 3.53554,-3.53553 11.84706,-4.77598 8.31152,-1.24045 l -16.11104,16.11104 m -83.2426,76.17153 -56.55236,56.55236 c -3.53553,3.53553 -2.66053,9.7316 0.875,6.19607 l 60.05035,-60.05035 c 3.53553,-3.53553 9.18925,-2.11818 5.65371,1.41736 l -17.96332,17.96332 c -3.53553,3.53553 2.41262,4.65845 5.94815,1.12292 l 17.10751,-17.10752 c 3.53554,-3.53553 8.72584,-1.65477 5.19031,1.88077 l -16.6815,16.68149 c -3.53553,3.53554 1.77492,5.29615 5.31045,1.76062 l 17.32556,-17.32556 c 3.53554,-3.53553 14.68081,-7.60974 11.14527,-4.0742 l -24.29811,24.29812 c -3.53554,3.53553 1.499,5.57206 5.03453,2.03652 l 27.78873,-27.78872 c 3.53554,-3.53554 10.8032,-3.73213 7.26767,-0.1966 l -28.93192,28.93192 c -3.53554,3.53553 3.26879,3.80228 6.80432,0.26674 l 28.65332,-28.65332 c 3.53554,-3.53553 9.11076,-2.03969 5.57523,1.49584 l -27.54264,27.54264 c -3.53553,3.53553 0.16626,6.90481 3.7018,3.36927 l 29.40538,-29.40538 c 3.53553,-3.53553 9.39919,-2.32812 5.86366,1.20741 L 499.076,782.16814 c -3.53554,3.53553 6.89398,0.17708 10.42952,-3.35845 l 21.96329,-21.9633 c 3.53554,-3.53553 9.03737,-1.9663 5.50184,1.56924 l -18.6775,18.6775 c -3.53554,3.53553 5.81642,1.25464 9.35195,-2.28089 l 15.57202,-15.57202 c 3.53554,-3.53554 10.40879,-3.33772 6.87325,0.19781 l -14.34818,14.34819 c -3.53553,3.53553 3.87743,3.19363 7.41297,-0.3419 l 12.87835,-12.87835 c 3.53553,-3.53553 4.156,-18.29814 0.62047,-14.76261 l -1.00461,1.00461 c -3.53554,3.53554 -8.69661,1.62554 -5.16107,-1.91 l 1.13096,-1.13096 c 3.41959,-3.41959 -2.73898,-4.33208 -6.15858,-0.91249 l -0.70215,0.70216 c -2.4834,2.48339 -7.78188,0.71081 -5.29849,-1.77258 l 1.33031,-1.33032 c 0.70965,-0.70964 -4.94329,-2.12777 -5.65293,-1.41813 l -0.53224,0.53223 m 410.61617,-481.32683 -6.52411,6.5241 m -140.23096,140.23096 -1.32842,1.32842 m 132.33661,-125.26554 -0.57407,0.57407 c -0.76543,0.76542 2.252,4.81906 3.01743,4.05364 l 0.57859,-0.5786 c 1.53689,-1.53688 5.57546,1.49562 4.03857,3.0325 l -0.92708,0.92708 c -2.31606,2.31607 9.28149,4.86065 11.59756,2.54458 v 0 c 2.31607,-2.31607 5.55652,1.51454 3.24046,3.83061 l -2.55047,2.55047 m -452.5344,417.17906 3.0976,-3.0976 m -78.53445,78.53445 -25.77774,25.77774 c -3.53553,3.53553 -1.93144,9.00251 1.60409,5.46698 l 17.86259,-17.86259 c 3.53553,-3.53554 3.45563,3.61543 -0.0799,7.15096 l -15.54248,15.54249 c -3.53553,3.53553 -1.435,8.50606 2.10053,4.97053 l 16.88151,-16.88151 c 3.53553,-3.53553 5.92821,1.14286 2.39268,4.67839 l -17.04267,17.04266 c -3.53553,3.53554 -1.17038,8.24146 2.36515,4.70593 l 16.62799,-16.62799 c 3.53553,-3.53554 5.17943,1.89164 1.6439,5.42717 l -15.71481,15.7148 c -3.53553,3.53554 -0.18451,7.25558 3.35102,3.72005 l 14.31884,-14.31883 c 3.53553,-3.53554 5.59423,1.47683 2.05869,5.01237 l -13.67026,13.67026 c -3.53553,3.53553 -0.63234,7.70341 2.9032,4.16787 l 4.91851,-4.91851 c 3.53553,-3.53554 3.68689,3.38417 0.15136,6.91971 l -3.05919,3.05918 c -2.20747,2.20748 0.66844,6.40264 2.87591,4.19516 l 0.45136,-0.45136 c 1.60567,-1.60566 2.30594,4.76513 0.70028,6.37079 l -0.0583,0.0583 c -1.52799,1.52799 0.42516,6.64591 1.95315,5.11792 l 0.17593,-0.17594 c 1.29342,-1.29341 6.12425,8.01789 4.83084,9.3113 l -0.97006,0.97006 m 500.17535,-599.17029 -3.42395,3.42395 c -3.53554,3.53554 -1.03245,8.10352 2.50308,4.56799 l 0.53023,-0.53023 c 3.53553,-3.53554 5.77757,1.29349 2.24204,4.82902 l -3.16967,3.16967 c -0.85843,0.85844 6.56607,0.505 7.4245,-0.35343 v 0 c 0.85844,-0.85844 -1.17171,8.24278 -2.03015,9.10122 l -0.72781,0.72781 c -1.82886,1.82885 -0.58012,7.65118 1.24873,5.82233 l 0.61268,-0.61267 c 2.64575,-2.64576 5.34833,1.72273 2.70258,4.36849 l -1.02918,1.02917 c -3.53553,3.53553 -2.58221,9.65328 0.95332,6.11775 l 2.69169,-2.69169 c 2.07434,-2.07434 4.89411,2.17696 2.81977,4.2513 l -0.75196,0.75196 c -1.07173,1.07173 2.6651,4.40597 3.73682,3.33424 v 0 c 1.07173,-1.07172 -5.91651,-1.15455 -6.98824,-0.0828 l -1.76337,1.76337 c -1.90702,1.90703 -0.094,7.16505 1.81306,5.25802 v 0 c 1.90703,-1.90703 -11.80567,-2.33647 -13.7127,-0.42944 l -6.02505,6.02505 c -3.53554,3.53554 -5.18865,-1.88242 -1.65312,-5.41795 l 6.51574,-6.51574 c 3.53554,-3.53553 4.86542,-11.93649 1.32989,-8.40096 l -9.51756,9.51757 c -3.53554,3.53553 -5.10911,-1.96196 -1.57358,-5.4975 l 3.26538,-3.26538 m -109.40116,88.18796 1.41602,-1.41602 c 1.88803,-1.88803 4.79817,2.27291 2.91014,4.16094 l -1.33526,1.33525 c -0.67918,0.67919 4.53831,2.53276 5.2175,1.85358 v 0 c 0.67918,-0.67918 3.42544,3.64562 2.74626,4.3248 l -0.0141,0.0141 c -0.69801,0.69801 10.51731,-3.44624 11.21531,-4.14425 l 6.88978,-6.88977 c 3.53553,-3.53553 6.00125,1.06982 2.46571,4.60535 l -1.41502,1.41503 c -3.53554,3.53553 -1.32952,8.40058 2.20601,4.86505 l 1.2692,-1.26919 c 3.53553,-3.53554 5.08355,1.98751 1.54801,5.52305 l -1.70294,1.70294 c -3.53554,3.53554 -0.92497,7.99604 2.61056,4.46051 l 0.18558,-0.18558 c 3.53553,-3.53553 0.89853,6.17253 -2.637,9.70807 l -2.70444,2.70443 c -2.96167,2.96168 -3.80252,-3.26854 -0.84084,-6.23022 l 1.32907,-1.32907 c 1.18957,-1.18958 -3.29519,-3.77588 -4.48476,-2.58631 l -0.89218,0.89218 m -576.23919,526.74172 -2.03329,2.03329 c -2.71105,2.71105 -3.00342,10.07448 -0.29236,7.36342 l 15.78707,-15.78707 c 3.53554,-3.53553 11.52133,-4.45026 7.9858,-0.91473 l -19.3399,19.3399 c -3.53553,3.53554 2.64927,11.49287 6.1848,7.95733 l 1.77867,-1.77866 c 3.53554,-3.53554 4.64195,-11.71302 1.10642,-8.17749 l -12.3714,12.3714 c -3.53554,3.53554 -5.9646,13.03569 -2.42907,9.50014 l 2.95732,-2.95732 M 907.4324,331.38534 928.45041,310.36732 c 3.53554,-3.53553 0.55637,6.5147 -2.97916,10.05023 l -6.32863,6.32863 m -28.59647,21.5254 1.21666,-1.21665 c 1.62221,-1.62221 6.38164,7.76049 4.75943,9.3827 l -14.70675,14.70675 c -3.24294,3.24294 6.08804,8.0541 9.33098,4.81115 l 1.9701,-1.9701 c 0.61614,-0.61614 11.20303,2.9391 10.5869,3.55524 v 0 c -0.61614,0.61614 6.54975,7.59238 7.16589,6.97625 l 0.33306,-0.33307 c 1.06022,-1.06022 2.71533,4.35574 1.65511,5.41596 l -0.433,0.433 c -1.63755,1.63755 -0.67103,7.7421 0.96652,6.10455 l 0.15416,-0.15416 c 1.84309,-1.84309 13.4894,-6.41833 11.6463,-4.57524 l -2.92718,2.92718 c -2.96484,2.96485 1.70343,5.36765 4.66827,2.40281 l 0.0875,-0.0875 c 2.84812,-2.84813 5.37125,1.69981 2.52313,4.54794 l -0.13375,0.13374 c -2.6698,2.6698 5.99163,1.07945 8.66142,-1.59035 v 0 c 2.6698,-2.6698 4.26436,2.80671 1.59456,5.47651 l -14.24351,14.24351 c -3.53553,3.53553 -6.76859,-0.30248 -3.23305,-3.83801 l 10.10338,-10.10339 c 3.53554,-3.53553 -5.88749,-1.18357 -9.42303,2.35196 l -6.43508,6.43509 m -58.29132,-33.63257 1.27276,-1.27276 c 1.697,-1.697 5.25007,1.821 3.55306,3.51801 l -6.3349,6.3349 m -420.63243,413.56136 2.58684,-2.58684 c 3.44911,-3.44911 8.21278,-1.14172 4.76367,2.3074 l -3.6952,3.6952 c -3.53553,3.53553 -9.19568,16.26674 -5.66014,12.73121 l 14.01457,-14.01458 c 3.53554,-3.53553 10.872,-3.80092 7.33646,-0.26539 l -19.25934,19.25935 c -3.53554,3.53553 2.41629,4.65478 5.95182,1.11924 l 20.0144,-20.0144 c 3.53553,-3.53553 8.96645,-1.89538 5.43092,1.64015 l -23.63721,23.63721 c -3.53554,3.53553 -0.6847,7.75577 2.85083,4.22024 l 27.91976,-27.91976 c 3.53553,-3.53553 10.57254,-3.50148 7.03701,0.0341 L 443.1521,845.1631 c -3.53553,3.53553 1.54597,5.52511 5.0815,1.98957 l 39.80595,-39.80594 c 3.53553,-3.53554 10.29461,-3.22355 6.75908,0.31198 l -49.56761,49.56761 c -1.70862,1.70862 -5.05857,-2.0125 -3.34994,-3.72113 l 0.0913,-0.0912 c 1.58695,-1.58695 -2.94646,-4.12462 -4.53341,-2.53767 v 0 c -1.58695,1.58695 -2.82092,-4.25014 -1.23397,-5.83709 l 3.01839,-3.01839 c 0.73382,-0.73382 0.47939,-7.55046 -0.25442,-6.81665 l -0.55037,0.55037 m 375.47412,-403.75839 -0.90101,0.90101 m -380.23926,380.23925 -4.60512,4.60513 m -153.04738,153.04738 -0.4617,0.4617 c -0.6156,0.6156 3.83681,3.23426 4.45241,2.61866 l 1.91216,-1.91216 M 906.789,346.17087 l -3.49137,3.49137 c -0.90906,0.90905 3.22169,10.92044 4.13075,10.01139 v 0 c 0.90905,-0.90906 -9.54515,2.47408 -10.4542,3.38313 l -4.53618,4.53617 m -48.16281,41.09174 -2.07338,2.07339 c -2.53418,2.53417 0.0437,7.02735 2.57789,4.49317 v 0 c 2.53418,-2.53417 11.23538,-4.16431 8.7012,-1.63013 l -5.74205,5.74205 c -2.95613,2.95613 0.12321,6.94786 3.07935,3.99172 l 1.16029,-1.16029 c 1.40908,-1.40908 2.14674,4.92433 0.73766,6.33341 v 0 c -1.40908,1.40908 5.91062,1.16045 7.3197,-0.24863 l 0.96207,-0.96207 c 2.69184,-2.69184 6.6574,0.41366 3.96556,3.1055 l -6.28276,6.28276 c -3.53554,3.53554 -1.51293,8.584 2.02261,5.04846 l 6.06334,-6.06334 c 1.37218,-1.37218 4.32489,2.74618 2.95271,4.11835 v 0 c -1.37217,1.37218 6.89582,0.17526 8.26799,-1.19692 l 1.88834,-1.88834 c 1.40626,-1.40625 -2.50034,-4.57072 -3.9066,-3.16446 v 0 c -1.40625,1.40625 3.97875,10.16338 5.38501,8.75712 l 1.81354,-1.81354 c 3.53554,-3.53553 3.03681,-17.17894 -0.49873,-13.64341 l -2.7405,2.74051 m -577.64928,521.08074 20.62371,-20.62371 c 3.53554,-3.53554 14.23918,-7.16811 10.70364,-3.63258 l -69.89477,69.89477 m -9.00872,16.0798 85.66194,-85.66195 c 3.53554,-3.53553 10.46525,-3.39418 6.92971,0.14136 l -93.05598,93.05599 c -3.53554,3.5355 3.05663,4.0144 6.59216,0.4789 l 93.49464,-93.49464 c 3.53553,-3.53553 10.62727,-3.5562 7.09174,-0.0207 l -93.68171,93.68174 c -3.53554,3.5355 3.44582,3.6252 6.98135,0.09 l 93.96288,-93.9629 c 3.53553,-3.53553 13.96624,-6.89517 10.43071,-3.35964 l -97.37661,97.37664 c -3.53554,3.5355 3.50344,3.5676 7.03898,0.032 l 102.495,-102.49504 c 3.53553,-3.53553 14.35352,-7.28245 10.81798,-3.74692 L 295.82097,1020.7785 c -3.53553,3.5355 3.51262,3.5585 7.04815,0.023 L 414.00276,909.66779 c 3.53553,-3.53554 16.29552,-9.22446 12.75999,-5.68892 L 309.92412,1020.8175 c -3.53553,3.5355 3.52917,3.5419 7.0647,0.01 L 435.4394,902.37328 c 3.53553,-3.53553 5.87889,1.19218 2.34335,4.72772 l -113.72923,113.7292 c -3.53554,3.5356 3.52916,3.5419 7.06469,0.01 l 109.7022,-109.70219 c 3.53553,-3.53554 7.15784,-0.0868 3.6223,3.44876 L 338.18291,1020.843 c -3.53554,3.5355 3.53419,3.5369 7.06972,0 L 453.83998,912.25698 m 471.55286,-563.47675 -7.90282,7.90282 c -3.53554,3.53554 -3.71898,10.79005 -0.18345,7.25452 l 4.36115,-4.36115 c 3.53554,-3.53554 11.81357,-4.74251 8.27804,-1.20697 l -2.15389,2.15389 c -3.53554,3.53553 -1.14541,8.21648 2.39012,4.68094 l 4.23044,-4.23044 c 2.11197,-2.11196 4.76076,2.31031 2.6488,4.42227 v 0 c -2.11197,2.11197 0.82755,13.31459 2.93951,11.20262 l 15.22109,-15.22108 c 1.94907,-1.94907 1.16605,-8.23712 -0.78302,-6.28806 l -1.4618,1.46181 m -126.57873,91.22339 -1.37623,1.37623 m 38.26547,-31.19441 1.89601,-1.89601 m 49.75404,-42.68296 5.02309,-5.02309 c 3.53553,-3.53554 5.02569,2.04538 1.49015,5.58091 l -3.01037,3.01037 c -3.53553,3.53554 -2.39279,9.46386 1.14275,5.92833 l 1.69508,-1.69508 c 3.53553,-3.53554 3.56161,3.50945 0.0261,7.04498 l -0.61642,0.61642 c -3.13698,3.13698 7.22154,-0.15048 10.35853,-3.28746 l 0.0855,-0.0855 c 3.02298,-3.02298 0.77212,-7.84319 -2.25086,-4.82021 v 0 c -3.02298,3.02298 -3.44455,-3.62652 -0.42157,-6.6495 l 5.06424,-5.06424 m -321.89792,307.75578 3.14996,-3.14995 m 220.17832,-213.10725 4.04874,-4.04875 c 3.53554,-3.53553 6.91564,0.15543 3.3801,3.69097 l -3.49794,3.49794 c -2.28477,2.28477 -0.59221,7.66328 1.69256,5.37851 v 0 c 2.28477,-2.28477 10.03891,-2.96784 7.75414,-0.68308 l -6.14271,6.14272 c -2.39997,2.39997 -0.60775,7.67882 1.79222,5.27885 v 0 c 2.39997,-2.39997 4.48642,2.58464 2.08645,4.98461 l -0.30015,0.30015 c -2.80017,2.80018 -1.75012,8.82119 1.05006,6.02102 l 0.88247,-0.88248 c 1.78333,-1.78333 1.59694,5.47413 -0.18639,7.25746 l -1.33749,1.33749 m -159.86817,110.37069 -1.14186,1.14186 m 146.3235,-139.25243 -0.91412,0.91412 m 30.52005,-23.44898 2.40838,-2.40838 c 3.21117,-3.21118 5.59584,1.47523 2.38466,4.6864 l -3.67964,3.67964 c -3.53553,3.53554 -0.5739,7.64498 2.96163,4.10944 l 6.83777,-6.83777 c 3.53553,-3.53553 3.70737,3.3637 0.17184,6.89923 l -3.78806,3.78807 c -3.53554,3.53553 0.029,7.04202 3.56457,3.50648 l 38.4599,-38.45989 c 2.54122,-2.54122 0.48444,-7.55551 -2.05678,-5.01429 v 0 c -2.54122,2.54122 1.02296,13.11918 3.56418,10.57796 l 0.0546,-0.0546 c 2.61397,-2.61396 -7.43318,-6.70895 -10.04714,-4.09499 l -22.77962,22.77962 c -3.53553,3.53553 11.06845,3.07368 14.60399,-0.46185 l 14.15382,-14.15382 m -50.44123,15.08589 2.3892,-2.3892 m -15.47104,15.47104 1.7915,-1.7915 c 2.38867,-2.38867 6.18747,7.95467 3.79881,10.34333 l -1.15793,1.15792 c -0.97842,0.97842 1.78453,5.28655 2.76295,4.30813 l 0.0775,-0.0775 c 0.87507,-0.87507 7.82482,-0.75375 6.94975,0.12131 l -0.6563,0.6563 m -286.24144,257.95717 -9.76094,9.76094 c -3.53554,3.53553 -0.0853,7.15639 3.45021,3.62086 l 9.98869,-9.98869 c 3.53553,-3.53553 9.73071,-2.65964 6.19517,0.87589 l -31.18139,31.18139 c -3.53553,3.53553 3.75902,3.31205 7.29455,-0.22348 l 29.7481,-29.74809 c 3.53553,-3.53554 9.48659,-2.41553 5.95106,1.12 l -28.24324,28.24325 c -3.53554,3.53553 4.20122,2.86984 7.73675,-0.66569 l 26.80692,-26.80692 c 3.53554,-3.53554 10.14839,-3.07732 6.61285,0.45821 l -25.19085,25.19086 c -3.53554,3.53553 4.87448,2.19658 8.41002,-1.33895 l 21.18427,-21.18427 c 1.93078,-1.93078 7.97646,-0.9054 6.04569,1.02537 l -1.44808,1.44809 m -110.96267,54.39412 -53.22074,53.22074 c -3.53553,3.53553 2.61949,4.45158 6.15503,0.91604 l 51.36643,-51.36644 c 3.53554,-3.53553 10.49817,-3.42709 6.96264,0.10844 l -54.01833,54.01832 c -1.14937,1.14938 5.17544,1.89564 6.32482,0.74626 v 0 c 1.14937,-1.14938 -8.56123,1.49016 -9.71061,2.63954 l -3.34342,3.34342 M 692.929,637.81264 l -1.58412,1.58413 c -2.11217,2.11217 1.2817,5.78936 3.39387,3.67719 l 2.03046,-2.03046 c 1.9191,-1.9191 5.73131,1.33976 3.81221,3.25886 l -1.43933,1.43933 m -173.9044,159.76226 -50.56815,50.56815 c -3.53553,3.53553 1.17267,5.8984 4.70821,2.36286 l 50.28988,-50.28988 c 3.53554,-3.53554 11.45992,-4.38885 7.92438,-0.85331 l -50.54976,50.54975 c -3.53553,3.53554 7.42841,-0.35733 10.96394,-3.89287 l 47.48334,-47.48333 m 328.63194,-335.70301 11.765,-11.765 c 3.42785,-3.42785 4.85746,2.2136 1.42961,5.64145 l -2.57089,2.57089 m -41.66389,34.59283 -3.53321,3.5332 m 59.95085,-52.87978 -3.70293,3.70293 m -330.94239,338.01346 -60.34158,60.34159 c -3.53554,3.53553 1.33012,5.74094 4.86566,2.2054 l 61.0601,-61.0601 c 3.53553,-3.53553 4.50282,2.56825 0.96729,6.10378 l -57.57945,57.57945 c -3.53553,3.53553 7.41464,-0.34357 10.95017,-3.8791 l 41.57417,-41.57418 c 3.53554,-3.53553 3.63316,3.43792 0.0976,6.97345 l -33.66507,33.66507 c -3.53554,3.53553 5.44995,1.62112 8.98548,-1.91442 l 26.378,-26.378 c 3.53554,-3.53553 2.9908,4.08027 -0.54473,7.6158 L 549.1292,852.3231 c -3.53554,3.53553 3.6035,3.46756 7.13904,-0.068 l 10.3968,-10.3968 c 3.53553,-3.53553 4.36634,2.70473 0.83081,6.24026 l -6.55757,6.55757 m 52.05292,-101.5504 -19.73348,19.73348 c -3.53553,3.53553 -0.0576,7.12865 3.47796,3.59311 l 21.5778,-21.5778 c 3.53553,-3.53553 6.95688,0.11418 3.42135,3.64972 L 599.974,780.26509 c -3.53554,3.53554 -0.36522,7.43629 3.17031,3.90076 l 20.75163,-20.75163 c 3.53553,-3.53554 6.19288,0.87818 2.65735,4.41371 l -17.19961,17.19962 c -3.53554,3.53553 0.28898,6.78208 3.82451,3.24655 l 14.76822,-14.76822 c 3.53554,-3.53554 6.68478,0.38629 3.14924,3.92183 l -14.03053,14.03053 c -3.53553,3.53553 1.04373,6.02733 4.57927,2.4918 l 10.07689,-10.07689 c 3.53553,-3.53554 7.1146,-0.0435 3.57907,3.492 l -13.84656,13.84656 c -3.53554,3.53553 0.36713,6.70394 3.90266,3.1684 l 10.7789,-10.7789 c 3.53553,-3.53553 7.06543,0.006 3.5299,3.54117 l -10.9888,10.9888 c -3.53554,3.53554 -0.60036,7.67143 2.93518,4.13589 l 12.25944,-12.25944 c 3.53553,-3.53553 4.85318,2.21789 1.31765,5.75342 l -11.26052,11.26052 c -3.53554,3.53553 -1.62419,8.69526 1.91134,5.15972 l 11.22196,-11.22196 c 3.53554,-3.53553 6.47212,0.59895 2.93659,4.13449 l -10.92295,10.92294 c -3.53554,3.53554 0.75149,6.31958 4.28702,2.78405 l 8.46963,-8.46963 c 3.53553,-3.53553 6.72134,0.34973 3.1858,3.88527 l -7.97043,7.97043 c -3.53553,3.53553 0.0953,6.97577 3.63083,3.44024 l 3.96406,-3.96406 c 3.53553,-3.53553 12.00344,-4.93237 8.4679,-1.39684 l -7.99618,7.99618 c -2.44414,2.44414 8.59716,-1.52609 11.0413,-3.97023 v 0 c 2.44414,-2.44414 5.65493,1.41615 3.21079,3.86028 l -2.39293,2.39293 c -1.59509,1.5951 13.25822,0.88391 14.85332,-0.71118 v 0 c 1.5951,-1.5951 4.94231,2.12875 3.34721,3.72385 l -3.08835,3.08835 c -3.53553,3.53554 -4.3819,11.45298 -0.84637,7.91744 l 6.22065,-6.22065 c 3.53554,-3.53554 3.40977,3.6613 -0.12576,7.19683 L 547.98125,994.8924 c -3.53554,3.53554 -1.45483,8.5259 2.0807,4.99037 L 687.43546,862.50925 c 3.53554,-3.53553 5.1793,1.89178 1.64376,5.42731 L 552.25264,1004.7631 c -3.53553,3.5356 -1.22192,8.293 2.31361,4.7575 L 692.57961,871.50724 c 3.53553,-3.53553 5.74551,1.32556 2.20997,4.8611 L 557.05009,1014.1078 c -3.53554,3.5356 -0.6563,7.7274 2.87924,4.1919 l 139.3034,-139.30344 c 3.53553,-3.53553 13.50814,-6.43708 9.97261,-2.90154 L 564.45171,1020.8484 c -3.53554,3.5355 3.53553,3.5355 7.07106,0 L 720.49151,871.87962 c 3.53553,-3.53554 12.54493,-5.47387 9.0094,-1.93834 L 578.59384,1020.8484 c -3.53553,3.5355 3.53554,3.5355 7.07107,0 L 729.62329,876.88997 c 3.53553,-3.53553 0.15963,6.91144 -3.37591,10.44697 l -133.5114,133.51136 c -3.53554,3.5356 3.53553,3.5356 7.07107,0 L 723.12129,897.5341 c 3.53554,-3.53553 4.98847,2.0826 1.45294,5.61813 L 606.87811,1020.8483 c -3.53553,3.5356 3.53554,3.5356 7.07107,0 L 770.57062,864.22691 c 3.53553,-3.53553 3.68186,3.38921 0.14633,6.92474 l -149.6967,149.69665 c -3.53553,3.5356 3.53553,3.5356 7.07107,0 L 772.83497,876.1047 c 3.53553,-3.53554 8.65287,-1.58181 5.11734,1.95373 L 635.16239,1020.8483 c -3.53554,3.5356 3.53553,3.5356 7.07106,0 L 781.13118,881.95062 c 3.53554,-3.53554 6.20968,0.86139 2.67415,4.39692 L 649.30452,1020.8483 c -3.53553,3.5356 3.53553,3.5356 7.07107,0 L 789.09065,888.13329 c 3.53553,-3.53553 1.64805,5.42302 -1.88749,8.95855 l -123.7565,123.75646 c -3.53554,3.5356 3.53553,3.5356 7.07106,0 L 791.10001,900.26606 c 3.53553,-3.53553 11.87872,-4.80765 8.34319,-1.27212 L 677.58879,1020.8483 c -3.53553,3.5356 3.53554,3.5356 7.07107,0 L 813.06473,892.44348 m -354.08121,14.66995 1.56987,-1.56986 c 2.09315,-2.09316 7.94987,-0.87881 5.85672,1.21434 l -114.0872,114.08719 c -3.53553,3.5355 3.53474,3.5363 7.07027,8e-4 L 470.58865,909.65044 c 3.53554,-3.53554 9.88795,-2.81688 6.35241,0.71865 l -110.4776,110.47761 c -3.53554,3.5355 3.53474,3.5363 7.07027,8e-4 L 488.11062,906.2706 c 3.53553,-3.53553 9.66238,-2.59131 6.12685,0.94422 L 380.604,1020.8483 c -3.53553,3.5355 3.53547,3.5356 7.07101,0 L 501.10344,907.41991 c 3.53554,-3.53553 9.79965,-2.72858 6.26412,0.80696 L 394.74608,1020.8483 c -3.53554,3.5356 3.53553,3.5356 7.07106,0 L 511.28068,911.38481 c 3.53554,-3.53553 10.40126,-3.33019 6.86573,0.20534 l -109.2582,109.25815 c -3.53553,3.5356 3.53554,3.5356 7.07107,0 l 109.9945,-109.99445 c 3.53553,-3.53553 6.19585,0.87522 2.66031,4.41075 l -105.58374,105.5837 c -3.53553,3.5356 3.53553,3.5356 7.07107,0 L 533.78879,917.16097 c 3.53554,-3.53553 8.69525,-1.62418 5.15971,1.91136 L 437.17249,1020.8483 c -3.53554,3.5356 3.53553,3.5356 7.07106,0 L 547.91942,917.17249 c 3.53553,-3.53554 5.72399,1.34707 2.18845,4.88261 l -28.39354,28.39354 c -3.53554,3.53554 3.47426,3.59681 7.00979,0.0613 l 31.41945,-31.41945 c 3.53554,-3.53553 11.51436,-4.44329 7.97883,-0.90775 l -35.3688,35.3688 c -3.53554,3.53553 -2.83879,9.90985 0.69675,6.37432 L 574.38017,918.996 c 3.53553,-3.53553 12.20447,-5.1334 8.66894,-1.59787 l -47.45382,47.45382 c -3.53553,3.53553 -1.36285,8.43392 2.17268,4.89839 l 53.36652,-53.36652 c 3.53553,-3.53553 10.74861,-3.67754 7.21307,-0.142 l -58.45052,58.45052 c -3.53554,3.53553 -1.44664,8.51771 2.08889,4.98217 l 66.50222,-66.50221 c 3.53553,-3.53553 4.63943,2.43164 1.10389,5.96717 l -65.5706,65.5706 c -3.53553,3.53553 -1.55596,8.62703 1.97958,5.0915 L 654.30258,881.5 m 257.92434,-413.48783 11.2328,-11.2328 c 3.53554,-3.53554 12.18092,-5.10985 8.64538,-1.57432 l -27.38851,27.38851 c -3.53553,3.53553 -1.24033,8.31141 2.2952,4.77587 l 6.7354,-6.7354 m 8.14981,-8.14981 16.90444,-16.90444 c 3.53553,-3.53553 8.43178,-1.36071 4.89624,2.17483 l -11.25667,11.25667 c -3.53553,3.53553 0.47677,6.5943 4.0123,3.05876 l 10.16617,-10.16616 c 3.53553,-3.53553 6.16929,0.90177 2.63376,4.43731 l -9.78917,9.78917 c -3.53553,3.53553 -1.50298,8.57404 2.03255,5.03851 l 10.06886,-10.06885 c 3.53553,-3.53554 5.54145,1.52961 2.00592,5.06514 l -10.4389,10.4389 c -3.53553,3.53554 -1.93146,9.00253 1.60408,5.46699 l 10.07908,-10.07908 c 3.53553,-3.53553 3.94358,3.12749 0.40805,6.66302 l -8.48567,8.48567 c -3.53553,3.53553 -0.34165,7.41271 3.19389,3.87718 l 5.01318,-5.01318 c 3.53553,-3.53553 2.90149,4.16958 -0.63405,7.70511 l -2.22808,2.22808 c -3.53553,3.53554 -4.84455,11.91562 -1.30902,8.38009 l 3.97151,-3.97151 m -68.65631,12.08777 2.5307,-2.5307 c 3.37427,-3.37427 7.80514,-0.73407 4.43087,2.6402 l -5.44874,5.44873 c -3.53553,3.53554 -3.69146,10.76253 -0.15592,7.227 l 8.99177,-8.99178 c 3.53554,-3.53554 6.22592,0.84515 2.69038,4.38069 l -9.72003,9.72003 c -3.53553,3.53553 -0.83657,7.90763 2.69897,4.3721 l 8.25494,-8.25494 c 3.53554,-3.53554 6.47911,0.59196 2.94358,4.12749 l -6.86052,6.86052 c -3.53554,3.53553 -0.84681,7.91788 2.68872,4.38234 l 7.01307,-7.01307 c 3.53554,-3.53553 8.01779,-0.94672 4.48226,2.58881 l -7.49445,7.49445 c -3.53554,3.53554 0.41926,6.6518 3.9548,3.11627 l 7.30217,-7.30217 c 3.53553,-3.53553 7.88154,-0.81047 4.34601,2.72506 l -8.12101,8.12101 c -3.53554,3.53553 0.40638,6.66469 3.94191,3.12915 l 5.08622,-5.08621 c 3.53553,-3.53554 4.68723,2.38384 1.15169,5.91937 l -6.40598,6.40598 c -2.68106,2.68106 -1.81486,8.88593 0.8662,6.20487 l 2.01079,-2.01079 m -333.59641,255.81466 -1.80721,1.80722 m 304.86023,-255.36276 1.71968,-1.71968 m -379.54894,386.62001 -57.58029,57.58024 c -3.53553,3.5356 3.53553,3.5356 7.07107,0 l 47.18558,-47.18553 c 3.53553,-3.53553 3.19806,3.87301 -0.33748,7.40854 l -39.77703,39.77699 c -3.53554,3.5356 3.53553,3.5356 7.07107,0 L 505.01618,988.36 c 3.53553,-3.53554 3.40856,3.6625 -0.12698,7.19804 l -25.29031,25.29026 c -3.53553,3.5356 3.53554,3.5356 7.07107,0 l 18.17145,-18.1714 c 3.53554,-3.53554 3.53852,3.5326 0.003,7.0681 l -11.10336,11.1033 c -3.53553,3.5356 3.53553,3.5356 7.07107,0 l 5.55168,-5.5516 c 1.51189,-1.5119 1.51355,5.5575 0.002,7.0694 l -1.13392,1.1339 m 154.09729,-196.5237 1.3634,-1.3634 m 209.29335,-202.22228 -5.90568,5.90568 c -3.53553,3.53553 -0.71007,7.78114 2.82547,4.2456 l 5.14629,-5.14629 c 3.53553,-3.53553 4.99835,2.07272 1.46282,5.60825 l -4.33116,4.33116 m -179.49839,172.42732 1.74224,-1.74224 c 2.32298,-2.32298 3.48551,3.58556 1.16253,5.90854 l -2.72502,2.72502 c -3.53553,3.53553 -5.76726,12.83833 -2.23173,9.3028 l 5.3198,-5.31981 m -29.45021,43.59235 2.14392,-2.14392 c 2.85856,-2.85856 6.96195,0.10912 4.10339,2.96768 l -11.45681,11.45681 m -33.22725,26.15618 -1.01131,1.01132 m 230.72668,-223.65562 2.27068,-2.27069 c 3.02758,-3.02757 7.98224,-0.91116 4.95465,2.11642 l -5.34906,5.34907 c -3.53554,3.53553 -4.90233,11.97339 -1.36679,8.43786 L 866.72471,683.22 c 3.53553,-3.53553 7.20438,-0.1333 3.66884,3.40223 l -16.56515,16.56515 c -3.53553,3.53553 -4.1084,11.17947 -0.57287,7.64394 l 4.0593,-4.0593 m 84.04631,-91.11738 4.14581,-4.14581 c 3.53553,-3.53553 3.07382,3.99725 -0.46171,7.53278 l -14.17763,14.17763 m -63.85076,63.85076 7.48908,-7.48908 c 1.80733,-1.80733 2.83309,4.23798 1.02577,6.0453 l -1.35549,1.35549 m 41.69033,-41.69033 28.38167,-28.38167 c 3.53553,-3.53553 2.13126,4.9398 -1.40427,8.47534 l -26.98941,26.98941 c -3.53554,3.53553 -3.43349,10.50455 0.10204,6.96902 l 25.92595,-25.92595 c 3.53554,-3.53554 2.0173,5.05377 -1.51823,8.5893 l -23.68083,23.68083 c -3.53554,3.53554 -1.69823,8.7693 1.8373,5.23377 l 20.25174,-20.25174 c 3.53554,-3.53554 0.29383,6.77723 -3.2417,10.31277 l -15.41381,15.4138 c -3.53553,3.53554 -1.41839,8.48947 2.11714,4.95393 l 13.66766,-13.66765 m -114.71062,72.28421 -2.639,2.639 m 11.31603,16.96824 1.14801,-1.14801 c 1.53068,-1.53068 -2.81166,9.88273 -4.34235,11.41341 l -4.61565,4.61566 c -3.43967,3.43967 -8.35065,15.42171 -4.91097,11.98204 l 2.57975,-2.57976 m -85.52419,78.45312 0.93719,-0.93718 m 71.59138,-57.44925 -9.60821,9.60821 m -4.84884,4.84885 1.1085,-1.10851 m -5.94484,5.94485 -4.36362,4.36362 m -5.38195,12.45301 -6.42875,6.42875 m -25.93695,25.93695 18.71396,-18.71395 m 156.48955,-149.41849 -1.0289,1.02889 c -1.37186,1.37186 0.91571,6.15536 2.28757,4.78351 l 4.16137,-4.16137 c 3.53553,-3.53554 7.30854,-0.23748 3.77301,3.29805 l -4.23494,4.23495 c -3.53554,3.53553 -1.46011,8.53117 2.07543,4.99563 l 6.44443,-6.44443 c 3.53553,-3.53553 6.79153,0.27954 3.25599,3.81508 l -7.52067,7.52067 c -3.53553,3.53553 -1.31806,8.38912 2.21747,4.85359 l 7.74429,-7.74428 c 3.53553,-3.53553 5.92709,1.14398 2.39155,4.67951 l -8.29237,8.29237 c -3.53553,3.53553 -2.00245,9.07353 1.53308,5.53799 l 8.13216,-8.13216 c 3.53554,-3.53554 3.9708,3.10027 0.43527,6.6358 l -7.31948,7.31948 c -3.53553,3.53553 -2.32824,9.39931 1.20729,5.86378 l 6.06094,-6.06094 c 3.53554,-3.53554 3.24831,3.82275 -0.28722,7.35829 l -4.72594,4.72594 c -3.53553,3.53553 -2.55689,9.62795 0.97865,6.09242 l 3.34712,-3.34712 c 3.53553,-3.53554 3.07374,3.99732 -0.4618,7.53286 l -2.07922,2.07922 c -3.53553,3.53553 -3.53393,10.60499 0.002,7.06946 l 1.6331,-1.6331 c 3.53553,-3.53553 3.54542,3.52564 0.01,7.06118 l -2.72913,2.72912 c -3.53553,3.53554 -5.53243,12.6035 -1.9969,9.06797 l 5.51785,-5.51784 c 3.53553,-3.53554 5.5339,1.53716 1.99836,5.0727 l -9.85255,9.85255 c -3.53553,3.53553 -6.49783,13.5689 -2.96229,10.03336 l 15.2603,-15.2603 c 3.53553,-3.53553 5.05195,2.01912 1.51642,5.55465 l -20.00319,20.00319 c -3.53553,3.53553 -6.88629,13.95736 -3.35076,10.42182 l 23.58213,-23.58213 c 3.53554,-3.53553 5.23421,1.83686 1.69868,5.3724 l -28.67395,28.67394 c -3.53553,3.53554 -6.92867,13.99974 -3.39314,10.46421 l 30.65428,-30.65428 c 3.53553,-3.53553 4.92808,2.14299 1.39254,5.67853 l -35.56854,35.56854 c -3.53553,3.53553 -7.01744,14.08851 -3.48191,10.55297 l 39.20459,-39.20459 c 3.53554,-3.53553 2.93359,4.13748 -0.60194,7.67301 l -42.29415,42.29415 c -3.53553,3.53554 -7.35752,14.4286 -3.82199,10.89306 l 46.76926,-46.76926 c 3.53553,-3.53553 3.68051,3.39056 0.14498,6.9261 l -51.09626,51.09625 c -3.53553,3.53553 -8.4068,15.47787 -4.87127,11.94234 l 53.30434,-53.30434 c 3.53553,-3.53553 3.15417,3.9169 -0.38136,7.45243 l -57.47548,57.47548 c -3.53554,3.53553 -8.06582,15.13689 -4.53029,11.60136 l 68.07485,-68.07485 c 3.53553,-3.53553 9.8292,-2.75814 6.29367,0.77739 L 881.035,965.89456 c -3.53553,3.53554 -7.30425,14.37532 -3.76871,10.83978 l 75.719,-75.719 c 1.14069,-1.14069 2.43448,4.63658 1.29379,5.77727 v 0 c -1.14069,1.14069 0.96053,6.11055 2.10122,4.96986 l 5.52179,-5.52179 c 0.85841,-0.85842 3.7297,3.34137 2.87128,4.19978 v 0 c -0.85841,0.85841 5.12988,1.94119 5.98829,1.08278 l 1.24233,-1.24233 c 2.11455,-2.11455 -0.57905,-6.49202 -2.6936,-4.37746 l -1.0878,1.0878 c -0.66416,0.66415 10.46376,3.67836 11.12792,3.01421 v 0 c 0.66415,-0.66415 8.4401,5.70204 7.77594,6.36619 l -1.10078,1.10078 m -189.72963,-36.54453 -2.43443,2.43443 m -8.49523,43.85056 -93.63545,93.63541 c -3.53554,3.5356 3.53553,3.5356 7.07106,0 l 16.76644,-16.7664 m 253.05818,-253.05817 -1.22176,1.22176 m 30.6221,47.15965 0.48616,-0.48616 c 0.64821,-0.64821 3.98739,3.08371 3.33919,3.73192 l -0.3399,0.33983 c -1.1013,1.10131 1.8592,5.21192 2.9605,4.1106 l 0.8127,-0.8127 c 1.7857,-1.78566 4.8726,2.19844 3.087,3.9841 v 0 c -1.7857,1.78567 4.3758,9.7663 6.1615,7.98063 l 0.8063,-0.80633 c 2.8608,-2.86077 7.4321,-0.36102 4.5713,2.49976 l -1.7024,1.70242 c -2.8159,2.81587 0.2655,6.8056 3.0813,3.98974 l 2.1119,-2.1119 m 0.071,-42.49724 -2.9853,2.98539 c -1.5107,1.51066 0.3542,6.71686 1.8648,5.2062 l 1.133,-1.13299 m -64.23553,92.51982 1.14314,-1.14314 c 1.52418,-1.52418 4.29601,9.84612 2.77183,11.3703 l -5.02968,5.02968 c -1.10197,1.10197 8.19755,-1.12648 9.29952,-2.22846 l 0.82648,-0.82647 m -98.22243,98.22243 79.04704,-79.04704 c 3.53554,-3.53554 3.37482,3.69624 -0.16071,7.23178 l -80.94998,80.94999 c -3.53553,3.5355 -8.42755,15.4986 -4.89202,11.9631 l 92.3186,-92.31862 c 3.53553,-3.53554 7.70052,-0.62946 4.16499,2.90607 l -20.65582,20.65582 c -3.53553,3.53553 4.3847,2.68637 7.92024,-0.84917 l 16.54391,-16.54391 c 3.53553,-3.53553 10.8804,3.26173 7.34487,6.79727 l -3.53418,3.53418 c -3.53553,3.53553 -2.30254,9.3736 1.233,5.83807 l 1.51277,-1.51278 c 3.53554,-3.53553 -7.79986,0.7288 -11.33539,4.26433 l -7.17021,7.1702 c -3.53553,3.53554 -2.05772,-5.01334 1.47781,-8.54887 l 21.86764,-21.86764 c 2.39305,-2.39305 9.27922,-2.20816 6.88617,0.1849 l -1.79479,1.79479 m -120.89073,99.67756 70.42164,-70.42167 c 3.53553,-3.53554 9.70037,-2.62931 6.16484,0.90622 l -67.10258,67.10255 c -3.53553,3.5356 3.66427,3.4068 7.1998,-0.1287 l 69.86695,-69.86695 c 3.53553,-3.53553 2.01096,5.06011 -1.52458,8.59564 l -60.93538,60.93541 c -3.53554,3.5355 3.60266,3.4684 7.13819,-0.067 l 72.97552,-72.97547 m 21.8652,-14.79413 -26.21842,26.21842 c -0.8567,0.8567 1.05705,6.01402 1.91375,5.15732 v 0 c 0.8567,-0.8567 7.30642,-0.23535 6.44972,0.62135 l -55.88514,55.88511 c -3.53553,3.5356 3.25511,3.816 6.79065,0.2804 l 57.207,-57.20695 c 3.53553,-3.53554 11.30204,-4.23098 7.76651,-0.69545 l -57.63748,57.6375 c -3.53554,3.5355 3.45049,3.6206 6.98602,0.085 l 55.45636,-55.45633 c 3.53554,-3.53554 4.60076,2.47031 1.06523,6.00584 l -29.78777,29.78779 c -3.53553,3.5355 6.57594,0.4951 10.11148,-3.04043 l 30.15788,-30.15789 c 2.31347,-2.31349 6.40367,0.66738 4.09017,2.98088 v 0 c -2.3135,2.3135 -10.98399,-3.15812 -8.67049,-5.47162 l 3.77486,-3.77486 m -104.28411,61.85772 55.44957,-55.44959 c 3.53554,-3.53553 8.47064,-1.39957 4.9351,2.13597 l -53.10018,53.10022 m 89.05304,-89.05308 -19.60681,19.60681 c -3.53554,3.53553 3.36722,3.70385 6.90275,0.16831 l 4.98589,-4.98589 c 3.53554,-3.53553 7.82979,-0.75871 4.29425,2.77682 l -2.69884,2.69885 m -29.97505,51.18828 -14.31918,14.3191 c -3.53553,3.5356 2.49909,4.572 6.03463,1.0365 l 18.27668,-18.2767 m 29.84621,-22.77513 0.91659,-0.91659 c 1.22212,-1.22212 4.19603,2.87503 2.97391,4.09715 l -37.44183,37.44187 c -3.53553,3.5355 3.26857,3.8025 6.80411,0.2669 l 17.78461,-17.7846 c 3.53553,-3.53552 6.72394,0.3471 3.18841,3.8827 l -4.59737,4.5973 c -3.53554,3.5356 4.52168,2.5494 8.05721,-0.9861 l 10.32994,-10.33 c 0.8676,-0.86753 2.2667,4.8044 1.3992,5.672 l -0.6507,0.6506 m -52.12006,16.7647 35.38501,-35.38496 c 3.53553,-3.53554 11.6461,2.49603 8.11057,6.03156 l -3.25756,3.25756 m 9.62204,-9.622 -1.04327,1.04323 c -1.39098,1.39097 11.22747,-4.15637 12.61837,-5.54735 l 1.6215,-1.62146 m -42.16801,42.16802 3.09421,-3.0942 c 1.54006,-1.5401 7.16311,-0.092 5.62305,1.448 v 0 c -1.54007,1.5401 8.55978,-1.4887 10.09984,-3.0288 l 1.31232,-1.3123 m 2.38079,-2.3808 1.73986,-1.7398 m 20.32424,0.8889 5.9763,-5.9763"
         id="path134" />
    </g>
  </g>
</svg>
